<svg width="151" height="72" viewBox="0 0 151 72" fill="none" xmlns="http://www.w3.org/2000/svg">
<path d="M134.462 34.1458L133.928 34.0309C132.471 33.7233 131.731 33.5678 131.858 32.8681C131.998 32.0434 133.21 32.0637 133.612 32.0704C134.187 32.0993 134.753 32.2333 135.28 32.4659C137.516 33.3734 138.515 31.1139 138.515 31.1139C137.511 30.039 135.961 29.5303 134.009 29.4982C132.488 29.4729 128.865 29.7619 128.32 32.9763C128.001 34.8505 129.012 36.0183 131.496 36.6318C131.952 36.7467 132.341 36.8363 132.691 36.914C133.967 37.2064 134.55 37.3382 134.447 37.9416C134.328 38.6497 133.522 38.9404 132.322 38.9201C131.122 38.8998 128.888 39.1736 127.518 36.6943C127.518 36.6943 125.439 39.9882 128.194 40.9954C129.128 41.3334 130 41.4855 131.623 41.4855C135.216 41.4855 137.759 40.2214 138.182 37.7303C138.587 35.3389 136.25 34.5412 134.453 34.1475" fill="black"/>
<path d="M122.908 37.1455C122.861 37.4404 122.751 37.7219 122.586 37.9711C122.422 38.2203 122.206 38.4315 121.953 38.5904C121.346 38.9805 120.634 39.1762 119.913 39.1515C119.364 39.1515 118.931 39.0282 118.628 38.7882C118.483 38.6698 118.374 38.5127 118.315 38.335C118.255 38.1574 118.246 37.9665 118.29 37.7843V37.7404C118.326 37.499 118.417 37.2692 118.556 37.0687C118.695 36.8682 118.878 36.7024 119.092 36.5844C119.551 36.3123 120.158 36.1754 120.891 36.1754C121.286 36.1726 121.68 36.2128 122.066 36.2954C122.347 36.3566 122.621 36.442 122.887 36.5506L122.989 36.5911L122.908 37.1455ZM125.938 30.7758C125.522 30.3263 124.999 29.9906 124.417 29.8006C123.644 29.5559 122.836 29.4417 122.025 29.4626C121.127 29.4494 120.23 29.5367 119.352 29.7229C118.792 29.8508 118.24 30.0093 117.697 30.1978L117.66 30.2536C117.355 30.6659 117.162 31.15 117.099 31.659C117.036 32.1681 117.106 32.6846 117.302 33.1587L117.616 33.0252C118.162 32.8336 118.72 32.6772 119.286 32.5571C119.866 32.4415 120.457 32.3848 121.049 32.3881C121.894 32.3881 122.497 32.5571 122.864 32.9137C123.23 33.2703 123.347 33.7097 123.274 34.3215L123.246 34.5547L123.028 34.4871C122.694 34.3841 122.356 34.2995 122.014 34.2336C120.809 34.0316 119.576 34.0649 118.383 34.3316C117.795 34.47 117.232 34.7034 116.719 35.0228C116.239 35.3243 115.827 35.7213 115.507 36.1889C115.174 36.6927 114.956 37.2641 114.87 37.862V37.9043C114.771 38.4206 114.8 38.9532 114.954 39.4557C115.094 39.8901 115.343 40.2813 115.678 40.5914C116.032 40.9098 116.452 41.1458 116.908 41.2826C117.424 41.4399 117.962 41.5174 118.502 41.5125C119.266 41.5283 120.026 41.3904 120.736 41.1069C121.271 40.8905 121.764 40.5797 122.189 40.1892L122.527 39.8765L122.299 41.2962H123.911L124.08 41.2759C125.382 41.2759 125.649 40.6506 125.737 40.1047L126.651 34.5107C126.776 33.8076 126.784 33.0887 126.675 32.383C126.581 31.7856 126.321 31.2265 125.926 30.769" fill="black"/>
<path d="M110.139 26.7518C110.044 26.5676 109.924 26.4526 109.821 26.4526C109.669 26.4526 109.429 26.674 109.356 26.767L105.204 32.4387L103.293 26.8261C103.293 26.8261 103.24 26.4729 102.955 26.4729C102.826 26.4729 102.593 26.7957 102.532 26.8667C97.6597 32.5908 93.8386 38.7306 90.7695 45.0936C91.3291 45.1227 91.8898 45.1227 92.4494 45.0936C93.8166 44.9685 94.9692 44.3212 95.5624 43.3258C97.3217 40.3243 99.5695 36.4863 101.854 33.5237L102.671 35.8897L104.173 39.6078L106.759 36.1348L108.936 33.2026L108.988 33.3293L112.329 41.2826C112.329 41.2826 114.433 40.277 114.416 37.0575L110.139 26.7518Z" fill="black"/>
<path d="M89.1156 37.0217C89.069 37.317 88.9596 37.5989 88.7949 37.8485C88.6302 38.098 88.414 38.3094 88.1607 38.4684C87.5537 38.8584 86.8421 39.0541 86.1209 39.0294C85.5699 39.0294 85.139 38.9061 84.8382 38.6661C84.6929 38.5477 84.5841 38.3906 84.5243 38.2129C84.4645 38.0353 84.4561 37.8444 84.5002 37.6622L84.5086 37.6183C84.543 37.3768 84.6332 37.1466 84.7719 36.946C84.9106 36.7453 85.0942 36.5797 85.308 36.4623C85.7677 36.1902 86.3744 36.0533 87.1079 36.0533C87.5026 36.0505 87.8964 36.0907 88.2824 36.1733C88.5629 36.2345 88.8376 36.3193 89.1038 36.4268L89.2069 36.4691L89.1156 37.0217ZM92.1475 30.6537C91.7317 30.2042 91.2082 29.868 90.6265 29.6769C89.8537 29.4322 89.0455 29.3179 88.2351 29.3389C87.3375 29.326 86.4412 29.4138 85.5632 29.6008C85.0054 29.7292 84.4548 29.8872 83.9137 30.074L83.8782 30.1298C83.5734 30.5419 83.3801 31.0256 83.3171 31.5343C83.254 32.0429 83.3233 32.5592 83.5183 33.0332L83.8309 32.898C84.377 32.7071 84.9347 32.5513 85.5007 32.4316C86.0813 32.3188 86.6719 32.265 87.2633 32.271C88.1084 32.271 88.7117 32.44 89.0784 32.7966C89.4452 33.1532 89.555 33.5825 89.4823 34.196L89.4536 34.436L89.2356 34.3684C88.9054 34.2651 88.5697 34.1804 88.23 34.1149C87.0252 33.9106 85.792 33.9439 84.5999 34.2129C84.0102 34.3502 83.4472 34.5837 82.9335 34.9041C82.4354 35.2122 82.0115 35.6264 81.6919 36.1172C81.3723 36.6079 81.1649 37.1632 81.0846 37.7433V37.7856C80.9864 38.3018 81.0148 38.8342 81.1674 39.337C81.3058 39.7686 81.5512 40.1581 81.8806 40.4693C82.2342 40.7887 82.6545 41.0254 83.111 41.1622C83.6274 41.3195 84.1648 41.397 84.7047 41.3921C85.469 41.4073 86.2286 41.2694 86.9389 40.9865C87.4743 40.7699 87.9665 40.4591 88.3923 40.0688L88.7387 39.7561L88.5106 41.1741H90.1212L90.2902 41.1555C91.5915 41.1555 91.8585 40.5285 91.9464 39.9843L92.8658 34.3954C92.9922 33.6924 93.0002 32.9733 92.8894 32.2677C92.7962 31.6704 92.5374 31.1113 92.1424 30.6537" fill="black"/>
<path d="M53.9811 35.3454C53.9132 35.7607 53.7737 36.161 53.5688 36.5284C53.3658 36.8946 53.105 37.2256 52.7964 37.5087C52.4851 37.7954 52.1251 38.0243 51.7334 38.1847C51.3232 38.3422 50.8883 38.4257 50.449 38.4314C50.0352 38.4247 49.6266 38.338 49.2457 38.1762C48.9222 38.0008 48.6326 37.769 48.3905 37.4918C48.1668 37.1996 48.0094 36.8622 47.9292 36.5031C47.841 36.1146 47.8307 35.7126 47.8988 35.3201V35.288C48.0333 34.4535 48.4475 33.6895 49.0733 33.1214C49.3876 32.8385 49.7469 32.61 50.1363 32.4454C50.5417 32.2795 50.976 32.1957 51.414 32.1986C51.8293 32.1909 52.2409 32.2782 52.6173 32.4538C52.9522 32.6128 53.2465 32.8461 53.4776 33.1361C53.7087 33.426 53.8705 33.7649 53.9507 34.1269C54.038 34.5155 54.0483 34.9174 53.9811 35.3099V35.3454ZM57.3409 32.9236C57.1428 32.2133 56.7856 31.5573 56.2965 31.0055C55.7844 30.4434 55.1549 30.0008 54.4527 29.7092C53.6558 29.3821 52.8009 29.2199 51.9396 29.2326C51.0297 29.2294 50.1268 29.3909 49.2744 29.7092C48.4485 30.0143 47.6778 30.4521 46.9929 31.0055C46.3217 31.549 45.7498 32.2049 45.3029 32.9439C44.8626 33.6691 44.5665 34.4725 44.4308 35.3099V35.3437C44.2953 36.1278 44.3339 36.9322 44.5441 37.6996C44.7409 38.4122 45.0975 39.0705 45.5868 39.6246C46.0994 40.1868 46.7295 40.6293 47.4323 40.9208C48.2291 41.2481 49.0841 41.4103 49.9454 41.3974C50.8552 41.4004 51.7581 41.239 52.6105 40.9208C53.4358 40.6154 54.2059 40.1776 54.8904 39.6246C55.5606 39.08 56.1323 38.4243 56.5804 37.6861C57.0206 36.9609 57.3167 36.1575 57.4524 35.3201V35.2863C57.5871 34.5021 57.5485 33.698 57.3392 32.9304" fill="black"/>
<path d="M65.9007 33.6184C65.8699 33.8266 65.7965 34.0262 65.6851 34.2047C65.5738 34.3832 65.4268 34.5369 65.2534 34.6561C64.8341 34.9284 64.34 35.0626 63.8405 35.0397H61.5928L62.0559 32.1667H64.2867C64.8562 32.1667 65.2923 32.285 65.5812 32.5165C65.8702 32.7481 65.9818 33.1114 65.9057 33.5897L65.9007 33.6184ZM66.0223 37.0509L66.3249 36.9207C67.0321 36.6258 67.6755 36.1965 68.2194 35.6566C68.7784 35.0316 69.1375 34.2534 69.2503 33.4224V33.3903C69.4345 32.2512 69.2249 31.3369 68.6267 30.6863C68.2434 30.2543 67.7532 29.9308 67.2054 29.7483C66.46 29.5031 65.6778 29.3887 64.8934 29.4103H59.1947L57.3086 41.0951H58.9986C60.3861 41.0951 60.665 40.4698 60.7545 40.2264L61.5353 35.3997L62.7657 37.6542C62.8029 37.715 63.6546 39.1634 63.9352 39.7025C64.1718 40.1571 64.6669 41.1035 66.362 41.1052H68.456C67.5484 39.8445 66.2251 37.4379 66.1626 37.3213L66.0223 37.0509Z" fill="black"/>
<path d="M78.1585 33.6184C78.1277 33.8263 78.0545 34.0257 77.9434 34.2042C77.8324 34.3827 77.6858 34.5365 77.5129 34.656C77.0929 34.9283 76.5983 35.0624 76.0983 35.0397H73.8489L74.3137 32.1666H76.5428C77.1124 32.1666 77.5484 32.2849 77.8374 32.5165C78.1264 32.748 78.2396 33.1114 78.1635 33.5896L78.1585 33.6184ZM78.2818 37.0508L78.5911 36.9139C79.2982 36.6186 79.9415 36.1893 80.4856 35.6498C81.0433 35.0238 81.4022 34.2461 81.5165 33.4156V33.3835C81.6991 32.2444 81.4895 31.3301 80.8929 30.6794C80.509 30.2474 80.0183 29.9239 79.4699 29.7415C78.7246 29.4962 77.9424 29.3819 77.158 29.4035H71.4525L69.5664 41.095H71.2564C72.6439 41.095 72.9211 40.4697 73.0124 40.2263L73.7932 35.3996L75.0218 37.6541C75.059 37.715 75.9107 39.1633 76.1913 39.7024C76.4279 40.1571 76.9231 41.1035 78.6182 41.1052H80.7121C79.8029 39.8444 78.4813 37.4378 78.417 37.3212L78.2818 37.0508Z" fill="black"/>
<path d="M43.0289 29.4016H41.3524L40.6426 33.7956H36.2688L36.7758 30.6505C36.8367 30.277 36.9786 29.3999 35.3258 29.3999H33.6713L31.9812 39.8442C31.9204 40.2194 31.7784 41.0965 33.433 41.0965H35.0858L35.8057 36.6298H40.1863L40.166 36.8985L39.6911 39.8442C39.6303 40.2194 39.49 41.0965 41.1428 41.0965H42.7737L44.5077 30.3429C44.5077 30.0877 44.4756 29.4033 43.0289 29.4033" fill="black"/>
<path d="M30.2061 36.9206C29.0625 33.4639 27.7578 30.0332 26.292 26.6283C26.1923 26.4408 26.0588 26.3225 25.9388 26.3174C25.7597 26.3174 25.4656 26.5168 25.3743 26.603C19.9743 32.1759 15.2445 38.3611 11.2812 45.0327C11.888 44.9651 12.3527 45.0884 12.9628 45.0327C14.3436 44.9076 15.5655 44.2603 16.2651 43.2666C18.6819 39.7852 21.4569 35.6294 24.8149 32.3119C24.7659 32.0499 26.3934 36.6502 26.968 38.2455L27.0255 38.374C27.3855 39.388 27.1404 39.819 27.4733 40.8414C28.3978 40.9073 29.3222 41.0662 30.245 41.1608C30.6895 41.1608 30.921 41.0763 31.0359 40.9563C31.1779 40.8076 31.286 40.4037 30.9463 39.3221C30.8128 38.8861 30.3903 37.4901 30.2061 36.9087" fill="black"/>
<path d="M23.4578 41.168H30.2416L27.0305 38.2527H21.1797C21.1797 38.2527 22.1379 41.168 23.4578 41.168Z" fill="black"/>
</svg>
