<svg width="151" height="72" viewBox="0 0 151 72" fill="none" xmlns="http://www.w3.org/2000/svg">
<path d="M91.9062 24.6404C91.9062 24.6404 90.2853 25.2857 88.4 27.3636C86.5147 29.4415 85.4167 31.778 86.2293 32.3994C86.5414 32.6356 87.2612 32.6806 88.5673 31.4997C89.7726 30.4532 90.7187 29.1413 91.3312 27.6673C92.1747 25.6105 91.9062 24.6657 91.9062 24.6432M102.224 28.3786C100.129 27.3045 98.5981 25.9887 97.0053 25.1747C95.4855 24.3944 94.5028 24.0682 93.2741 24.2327C93.1027 24.2633 92.9336 24.3056 92.768 24.3593C92.768 24.3593 93.4007 26.5201 90.8827 30.15C88.3325 33.8306 86.0185 33.8053 85.3605 32.7945C84.6716 31.7274 85.5615 29.5525 87.0475 27.6167C88.6038 25.5922 91.3368 23.9136 91.3368 23.9136C91.3368 23.9136 90.4652 23.3808 88.3255 24.594C86.2378 25.7722 82.6444 28.5839 79.3097 33.3259C75.9749 38.0679 75.3142 40.6771 74.8362 42.7311C74.3582 44.7851 74.7926 46.9853 77.0701 46.9853C79.3476 46.9853 81.9991 43.5114 82.747 42.3037C84.1374 40.0543 85.0442 36.6044 83.1519 37.0781C82.2198 37.3115 81.4649 38.3434 80.9883 39.3374C80.6874 39.9758 80.4573 40.6452 80.3022 41.3337C79.641 41.6062 79.02 41.9676 78.4563 42.4078C77.8293 42.8722 77.2432 43.3896 76.7046 43.9542C76.7046 43.9542 76.713 42.3122 78.0219 39.6551C79.3307 36.998 81.7334 35.7847 83.0943 35.6709C84.3202 35.5724 85.9158 36.6128 84.5634 40.4508C83.2109 44.2888 79.2211 48.9549 75.0302 49.0125C71.1627 49.0659 68.6321 44.13 74.0152 35.5162C79.9732 25.9999 86.9618 23.0799 89.2309 22.7552C91.4999 22.4304 92.238 23.4314 92.238 23.4314C93.6039 22.871 95.0791 22.6278 96.5526 22.72C99.3236 22.907 101.466 24.8682 104.295 26.2459C103.559 26.9489 102.858 27.6869 102.225 28.3786M114.673 25.1747C112.752 26.4062 110.095 27.5225 107.542 27.2835C106.896 27.9512 106.204 28.7245 105.511 29.568C109.938 30.4438 113.817 27.701 115.879 25.3659C116.631 24.5263 117.277 23.5976 117.802 22.6005C116.863 23.5785 115.812 24.4425 114.671 25.1747M108.777 37.6475C108.81 37.5891 108.837 37.5274 108.858 37.4633C108.845 37.362 108.797 37.2681 108.724 37.1975C108.65 37.1269 108.554 37.0838 108.452 37.0753C108.03 37.0556 107.455 37.1358 105.947 38.8059C104.695 40.1852 103.618 41.7131 102.74 43.3553C101.877 44.9327 101.527 46.108 102.023 46.4117C102.184 46.4952 102.371 46.5143 102.546 46.4651C102.882 46.385 103.263 46.07 103.842 45.3995C104.113 45.0845 104.414 44.6389 104.774 44.1454C105.772 42.7874 108.28 38.5121 108.777 37.6475ZM93.1068 39.4639C93.3585 38.8059 93.679 37.5139 93.0126 37.0064C92.297 36.468 90.4722 37.7319 90.4624 39.0281C90.4497 40.3552 91.7474 40.9555 92.058 41.0399C92.2352 41.0877 92.297 41.0806 92.3828 40.9386C92.658 40.4644 92.8999 39.9716 93.1068 39.4639ZM91.7263 41.8778C91.2741 41.6689 90.8522 41.3999 90.4722 41.0778C90.0912 40.7582 89.7728 40.3706 89.5331 39.9348C89.5078 39.8927 89.4825 39.925 89.4544 39.963C89.4263 40.0009 89.3138 40.1036 88.3409 41.5291C87.3681 42.9547 85.8736 45.9084 87.2261 46.4117C88.0921 46.7336 89.5331 45.2167 90.319 44.2115C90.8544 43.5099 91.3397 42.7714 91.7713 42.0015C91.812 41.9157 91.7713 41.896 91.7277 41.8778M107.068 45.2898C106.702 45.8774 106.283 47.0049 107.49 46.3034C108.968 45.4501 111.072 42.2573 111.072 42.2573H112.027C111.158 43.5929 110.191 44.8617 109.134 46.0532C107.636 47.7121 105.81 49.2192 104.524 49.0702C103.021 48.8944 103.492 46.922 103.492 46.922C103.492 46.922 101.342 49.2108 99.855 49.0463C97.846 48.8241 98.459 46.3414 98.459 46.3414C98.459 46.3414 96.1871 49.1292 94.6392 49.0435C92.2127 48.9029 92.8228 45.9506 93.4977 43.8713C93.859 42.7592 94.1936 41.8862 94.1936 41.8862C94.1936 41.8862 93.9532 41.9495 93.4358 42.0268C93.1659 42.0647 92.6738 42.0929 92.6738 42.0929C92.6738 42.0929 91.663 43.8755 90.8546 44.9468C90.0463 46.018 86.6103 49.7112 84.5887 48.9718C82.7189 48.2885 83.3375 45.4262 84.4256 43.1515C86.0142 39.835 90.4821 35.0706 93.059 35.7004C95.7302 36.3485 93.1195 41.2226 93.1195 41.2226C93.1195 41.2226 93.1195 41.2409 93.1476 41.2536C93.201 41.2732 93.3402 41.2887 93.6621 41.2254C93.9958 41.1574 94.3227 41.06 94.6392 40.9344C94.6392 40.9344 97.3244 35.311 100.291 31.6318C103.257 27.9527 109.174 21.6164 111.497 23.1488C112.059 23.5256 111.806 24.8232 111.041 26.3978C110.697 26.5097 110.347 26.6035 109.993 26.6789C110.504 25.7497 110.843 24.9666 110.944 24.4197C111.295 22.519 106.856 26.5285 103.685 30.8361C101.774 33.4329 100.077 36.18 98.6094 39.0506C99.1823 38.7011 99.7292 38.3107 100.246 37.8823C101.661 36.7093 103.005 35.454 104.272 34.123C105.492 32.8737 106.637 31.5527 107.7 30.1669C108.037 30.1506 108.374 30.1158 108.708 30.0629C107.549 31.6355 106.286 33.1282 104.926 34.5307C103.661 35.81 102.291 37.1864 101.102 38.186C100.04 39.0894 98.9191 39.922 97.7476 40.6786C97.7476 40.6786 94.9738 46.2725 96.4823 46.631C97.3694 46.8447 99.1211 44.1468 99.1211 44.1468C99.1211 44.1468 101.407 40.6589 102.785 39.0857C104.664 36.9488 106.283 35.7116 107.899 35.6891C108.841 35.6723 109.397 36.6732 109.397 36.6732L109.839 35.9872H112.567C112.567 35.9872 107.473 44.6304 107.066 45.2814M114.671 25.1747C112.751 26.4062 110.094 27.5225 107.541 27.2835C106.894 27.9512 106.202 28.7245 105.509 29.568C109.936 30.4438 113.815 27.701 115.878 25.3659C116.63 24.5264 117.276 23.5976 117.802 22.6005C116.863 23.5785 115.812 24.4425 114.671 25.1747ZM76.3686 29.4148H73.7748L72.3084 31.7836H74.9023L76.3686 29.4148ZM64.0869 37.618C65.1906 36.1053 68.2357 30.8038 68.2357 30.8038C68.2228 30.7025 68.1756 30.6087 68.1019 30.5381C68.0282 30.4674 67.9325 30.4243 67.8308 30.4157C67.409 30.396 66.7061 30.538 65.3101 32.2855C63.914 34.033 62.8301 35.4234 62.04 36.8701C61.174 38.4488 60.7958 39.5623 61.2935 39.8646C61.455 39.9455 61.6405 39.9645 61.8151 39.918C62.1384 39.8364 62.5616 39.5117 63.1422 38.8439C63.4149 38.5318 63.7242 38.1114 64.0869 37.618ZM50.1689 30.4481C49.4519 29.9068 47.6285 31.1735 47.6186 32.4669C47.6074 33.7954 49.2593 34.2017 49.473 34.2116C49.5358 34.2168 49.5988 34.2036 49.6543 34.1736C49.6924 34.1514 49.7229 34.118 49.7415 34.078C49.9357 33.6964 50.1103 33.305 50.2645 32.9055C50.5161 32.2476 50.8353 30.9556 50.1689 30.4481ZM49.0878 35.0213C48.5934 34.8669 48.1209 34.6496 47.6819 34.3746C47.2565 34.0973 46.9106 33.7141 46.6781 33.2626C46.6528 33.2204 46.6247 33.2528 46.5994 33.2907C46.5741 33.3287 46.4279 33.5114 45.4522 34.9426C44.4765 36.3738 43.0313 39.3008 44.3851 39.8041C45.2483 40.1317 46.7062 38.6021 47.4977 37.6011C48.09 36.8145 48.6373 35.995 49.137 35.1465C49.1693 35.0607 49.137 35.041 49.0892 35.0256M70.2728 35.9028H71.2231C71.2231 35.9028 66.4615 42.7916 63.772 42.471C62.2706 42.2953 62.7162 40.4424 62.7162 40.4424C62.7162 40.4424 60.6074 42.9111 58.6701 42.4106C56.9128 41.9593 58.0473 39.0365 58.0473 39.0365C57.8477 39.1166 54.0448 43.4031 51.3723 42.3754C48.576 41.2957 50.0283 37.7066 50.5597 36.6268C51.011 35.7173 51.5101 34.8316 51.5101 34.8316C51.5101 34.8316 51.0813 34.9525 50.8071 35.0143C50.533 35.0762 50.1365 35.1549 50.1365 35.1549C50.1365 35.1549 48.8136 37.3045 48.0052 38.3771C47.1969 39.4498 43.7609 43.136 41.7365 42.4021C39.712 41.6683 40.2139 38.8355 41.3513 36.5861C43.1958 32.9379 47.5722 28.4545 50.2082 29.135C52.871 29.814 50.6666 34.1328 50.6666 34.1328C50.6666 34.1328 51.1966 34.2017 52.4661 33.3357C54.2937 32.0887 56.7062 28.7343 59.3183 29.128C60.5498 29.3135 61.697 30.5718 60.128 32.9618C59.6275 33.7294 58.7882 34.4154 58.1458 33.7364C57.7451 33.3146 58.0951 32.5456 58.5155 32.0198C58.6791 31.8055 58.8929 31.6347 59.1381 31.5224C59.3832 31.4101 59.6522 31.3598 59.9214 31.3759C59.9214 31.3759 60.353 30.3918 59.255 30.4059C58.3665 30.4228 56.1171 32.4936 54.8476 34.5855C53.6835 36.5059 51.9192 39.7774 53.6906 40.4902C55.3143 41.1453 58.4044 37.4774 59.8356 35.5556C61.2668 33.6338 64.5284 29.2784 67.2642 29.1041C68.2061 29.0422 68.7671 29.9012 68.7671 29.9012L69.0834 29.4007H71.8192C71.8192 29.4007 66.6667 37.999 66.2646 38.6499C65.9483 39.1588 65.528 40.3032 66.6864 39.6621C67.8448 39.021 70.2728 35.9028 70.2728 35.9028ZM68.7839 49.6803C66.7696 48.2859 64.3575 47.582 61.9093 47.6741C61.2466 47.6922 60.5976 47.8662 60.0148 48.1821C59.432 48.4979 58.9318 48.9466 58.5549 49.4919C57.5117 47.6713 55.4493 46.5537 52.2608 46.579C47.1083 46.638 41.998 49.0139 37.9491 49.0111C34.0689 49.0111 31.2389 46.5719 31.3303 42.2405C31.5004 34.639 37.9238 27.7938 42.7178 24.7135C45.4817 22.9436 47.793 22.4178 49.3043 22.5879C50.4065 22.7102 51.7322 23.9839 50.8957 25.8607C49.667 28.6036 47.9701 28.3786 48.0334 27.067C48.0685 26.2136 48.6365 25.6766 49.0639 25.3799C49.3352 25.1929 49.8146 25.1395 50.0648 25.1339C50.3081 24.9286 50.4866 23.4272 48.5184 23.9206C46.5502 24.4141 44.1602 26.3542 41.8911 28.8608C39.6221 31.3675 36.0891 36.1053 35.2161 41.0806C34.8084 43.3877 35.0755 47.5954 40.5457 47.5476C45.1851 47.5097 52.0232 44.4547 58.3074 44.518C60.7466 44.5419 62.8695 45.1998 64.5242 46.2205C66.1494 47.2215 68.0979 48.6836 68.7896 49.6817" fill="black"/>
</svg>
