<svg width="151" height="72" viewBox="0 0 151 72" fill="none" xmlns="http://www.w3.org/2000/svg">
<path d="M82.832 42.6814H95.3453V41.153H84.9772V36.2621H92.7648V34.7156H84.9772V30.2096H95.3453V28.6868H82.832V42.6814Z" fill="black"/>
<path d="M116.354 41.153V28.6868H114.398V42.6814H127.048V41.153H116.354Z" fill="black"/>
<path d="M103.444 28.6868L96.3281 42.6814H98.7334L100.554 39.0592H109.088L110.924 42.6814H113.305L106.183 28.6868H103.444ZM101.455 37.305L104.808 30.6206L108.2 37.305H101.455Z" fill="black"/>
<path d="M76.0302 36.8295C79.2363 35.974 79.5479 33.5885 79.5316 32.7357C79.3402 30.2356 77.6558 28.6868 74.629 28.6868H65.8086V42.6814H67.8193V36.8109H73.5617L77.7862 42.6814H80.3206C80.3206 42.6814 77.2804 38.7305 76.0302 36.8295ZM74.3545 35.1573H67.8193V30.3432H74.5823C76.1393 30.3432 77.0152 31.0701 77.3307 31.9935C77.5394 32.6265 77.4056 33.4573 77.0603 34.023C76.4951 34.9583 75.4214 35.1573 74.3545 35.1573Z" fill="black"/>
<path d="M53.7322 26.3171C48.0562 26.3171 44.1875 30.3191 44.1875 35.1629C44.1875 40.2622 48.461 43.862 53.7322 43.862C58.9998 43.862 63.2716 40.3136 63.2716 35.1629C63.2716 30.3191 59.3551 26.3171 53.7322 26.3171ZM53.6641 42.1248C49.7371 42.1248 46.5015 38.9691 46.5015 35.1676C46.5015 31.3713 49.5844 28.0645 53.8163 28.0645C57.9434 28.0645 60.9771 31.3713 60.9771 35.1676C60.9771 38.969 57.5893 42.1248 53.6641 42.1248Z" fill="black"/>
<path d="M39.125 33.6376H40.5759L43.2094 28.6868H41.0902L39.125 33.6376Z" fill="black"/>
<path d="M32.0312 41.153V28.6868H30.0742V42.6814H42.7236V41.153H32.0312Z" fill="black"/>
</svg>
