<svg width="151" height="72" viewBox="0 0 151 72" fill="none" xmlns="http://www.w3.org/2000/svg">
<path d="M114.52 21.4902C115.3 21.4904 115.931 22.1208 115.931 22.9014L115.937 41.9287L115.858 49.2627C115.858 50.0432 115.294 50.6794 114.514 50.6797H98.2461C97.4658 50.6795 96.8293 50.0492 96.8291 49.2627V46.7402H52.791V49.2686C52.7909 50.0492 52.1545 50.6855 51.374 50.6855H35.3359C34.5554 50.6855 33.9249 50.0553 33.9248 49.2686L33.918 22.9072C33.9182 22.1266 34.5555 21.4961 35.3359 21.4961H51.3799C52.1604 21.4961 52.7967 22.1266 52.7969 22.9072V24.8779L96.9014 24.8721V22.9014C96.9015 22.1207 97.5379 21.4903 98.3184 21.4902H114.52ZM66.6992 31.9404C64.5738 31.9405 62.4661 32.9919 62.4658 35.3398C62.4658 39.3517 68.1458 37.6409 68.1465 39.8145C68.1465 40.6492 67.1621 41.0224 66.3936 41.0225C65.2767 41.0225 64.574 40.4694 63.8955 39.7246L62.1416 41.3701C63.2164 42.5773 64.6219 42.9922 66.2432 42.9922C68.3928 42.9922 70.7832 42.1149 70.7832 39.6104C70.7829 35.5027 65.1029 37.0399 65.1025 35.1543C65.1025 34.3675 65.9371 34.0371 66.6396 34.0371C67.5403 34.0371 68.2007 34.4096 68.7051 35.1123L70.4521 33.5449C69.5935 32.3797 68.1043 31.9404 66.6992 31.9404ZM77.8105 31.9287C74.6282 31.9288 72.082 34.1457 72.082 37.4609C72.0822 40.7761 74.6283 42.9921 77.8105 42.9922C78.7293 42.9922 80.5306 42.5956 81.6055 41.5205L79.8525 39.6348C79.3662 40.2714 78.6212 40.6201 77.8105 40.6201C75.8833 40.62 74.7189 39.1064 74.7188 37.4609C74.7188 35.8153 75.8832 34.3019 77.8105 34.3018C78.5131 34.3018 79.1981 34.7159 79.8105 35.3525L81.6299 33.5322C80.6211 32.4092 79.1495 31.9287 77.8105 31.9287ZM82.9688 38.8477C82.9688 40.9978 83.9833 42.9922 86.8115 42.9922C88.5649 42.9922 89.5558 42.0911 90.0361 41.04H90.0781V42.7275H92.582V32.1934H89.9463V37.9404C89.9463 39.3458 89.2674 40.619 87.5322 40.6191C85.6888 40.6191 85.6045 38.6915 85.6045 37.5264V32.1934H82.9688V38.8477ZM55.9873 31.9287C54.8225 31.9287 53.6753 32.1809 52.6846 32.7334V34.9922C53.6932 34.4577 54.8219 33.9655 55.8486 34.0254C57.2477 34.1095 58.1133 34.5837 58.1133 35.875V36.1572H57.4521C54.8161 36.1572 51.1592 36.3979 51.1592 39.8213C51.1593 41.9052 52.7146 42.9804 54.666 42.9805C56.0711 42.9805 57.2963 42.4518 58.0469 41.2686H58.1133V42.7158H60.4844V36.6738C60.4844 35.1783 60.4846 31.9288 55.9873 31.9287ZM99.1455 31.9287C97.9806 31.9287 96.8335 32.1809 95.8428 32.7334V34.9922C96.8516 34.4576 97.981 33.9653 99.0078 34.0254C100.407 34.1095 101.271 34.5838 101.271 35.875V36.1572H100.61C97.9803 36.1572 94.3174 36.398 94.3174 39.8213C94.3175 41.9051 95.8729 42.9803 97.8242 42.9805C99.2293 42.9805 100.454 42.4517 101.205 41.2686H101.271V42.7158H103.644V36.6738C103.644 35.1783 103.643 31.9287 99.1455 31.9287ZM40.291 42.7285H43.0527V36.2959H45.0283C48.3189 36.2959 51.2373 35.5924 51.2373 31.6885C51.2371 28.2473 48.517 27.1904 45.5088 27.1904H40.291V42.7285ZM106.289 42.7285H108.919V27.1602H106.289V42.7285ZM57.9629 38.6016C57.9629 40.0731 57.104 41.0166 55.3086 41.0166C54.4559 41.0166 53.4648 40.5957 53.4648 39.6348C53.465 38.1214 55.9689 38.0137 57.416 38.0137H57.9629V38.6016ZM101.115 38.6016C101.115 40.0731 100.256 41.0166 98.4609 41.0166C97.6023 41.0166 96.6172 40.5957 96.6172 39.6348C96.6173 38.1214 99.1152 38.0137 100.568 38.0137H101.115V38.6016ZM45.0225 29.5625C46.5176 29.5625 48.3369 29.8274 48.3369 31.7373C48.3366 33.8448 46.2959 33.9287 44.7168 33.9287H43.0469V29.5625H45.0225ZM110.685 27.1963C110.228 27.1963 109.855 27.5689 109.855 28.0254C109.856 28.4817 110.228 28.8535 110.685 28.8535C111.141 28.8534 111.513 28.4816 111.513 28.0254C111.513 27.569 111.141 27.1965 110.685 27.1963ZM110.685 27.3467C111.057 27.3468 111.351 27.6531 111.351 28.0254C111.35 28.3976 111.051 28.7039 110.685 28.7041C110.318 28.7041 110.018 28.3977 110.018 28.0254C110.018 27.653 110.318 27.3467 110.685 27.3467ZM110.366 28.5117H110.522V28.0908H110.637L110.912 28.5117H111.093L110.816 28.085C110.948 28.0669 111.062 27.9946 111.062 27.8145C111.062 27.6346 110.954 27.545 110.732 27.5449H110.366V28.5117ZM110.75 27.6768C110.852 27.6768 110.925 27.7188 110.925 27.8027C110.925 27.9048 110.846 27.9473 110.696 27.9473H110.522V27.6768H110.75Z" fill="black"/>
</svg>
