<svg viewBox="0 0 460 129" xmlns="http://www.w3.org/2000/svg">
<path class="fill-current text-gray-900 dark:text-white" d="M367.967 110.923V34.6461H389.801L390.663 53.3202L384.917 54.9004C386.162 51.0698 388.317 47.5265 391.381 44.2704C394.542 40.9187 398.372 38.2372 402.873 36.2262C407.47 34.1193 412.498 33.0659 417.956 33.0659C424.851 33.0659 430.597 34.4066 435.194 37.0881C439.887 39.7695 443.43 43.5522 445.824 48.4362C448.314 53.2245 449.559 58.7789 449.559 65.0994V110.923H426.575V68.8342C426.575 65.4824 425.857 62.5616 424.42 60.0717C423.08 57.5818 421.117 55.6665 418.531 54.3258C416.041 52.9851 413.12 52.3626 409.768 52.4584C406.895 52.4584 404.31 52.9851 402.011 54.0385C399.713 54.9961 397.702 56.289 395.978 57.917C394.35 59.545 393.105 61.3166 392.243 63.2319C391.477 65.1472 391.094 67.0625 391.094 68.9778V110.923H379.602C376.251 110.923 373.617 110.923 371.702 110.923C369.786 110.923 368.542 110.923 367.967 110.923Z"/>
<path class="fill-current text-gray-900 dark:text-white" d="M330.09 110.924V34.6468H353.218V110.924H330.09ZM341.582 23.7019C337.273 23.7019 333.921 22.6963 331.527 20.6853C329.133 18.5784 327.936 15.6097 327.936 11.7791C327.936 8.33157 329.133 5.50649 331.527 3.3039C333.921 1.1013 337.273 0 341.582 0C345.892 0 349.243 1.05342 351.637 3.16025C354.127 5.17131 355.372 8.04427 355.372 11.7791C355.372 15.3224 354.127 18.1954 351.637 20.398C349.148 22.6006 345.796 23.7019 341.582 23.7019Z"/>
<path class="fill-current text-gray-900 dark:text-white" d="M264.371 112.216C256.518 112.216 249.623 110.54 243.685 107.188C237.748 103.741 233.103 99.0481 229.752 93.1107C226.4 87.1732 224.724 80.4218 224.724 72.8563C224.724 65.0994 226.4 58.2522 229.752 52.3147C233.199 46.2815 237.892 41.589 243.829 38.2372C249.862 34.7897 256.901 33.0659 264.945 33.0659C269.446 33.0659 273.612 33.6405 277.443 34.7897C281.273 35.9389 284.673 37.4711 287.642 39.3864C290.61 41.206 293.004 43.2649 294.824 45.5633C296.739 47.8616 297.936 50.16 298.415 52.4584L293.1 52.7457V34.6461H315.94V110.923H292.669V90.9559L297.553 91.9615C297.17 94.4514 296.021 96.8934 294.106 99.2875C292.19 101.682 289.748 103.884 286.78 105.895C283.811 107.811 280.411 109.343 276.581 110.492C272.75 111.641 268.68 112.216 264.371 112.216ZM270.404 92.8234C275.192 92.8234 279.262 92.0094 282.614 90.3814C286.062 88.6576 288.695 86.3113 290.515 83.3426C292.43 80.2781 293.388 76.7827 293.388 72.8563C293.388 68.7384 292.43 65.1951 290.515 62.2264C288.695 59.2577 286.062 56.9114 282.614 55.1877C279.262 53.4639 275.192 52.602 270.404 52.602C265.807 52.602 261.785 53.4639 258.337 55.1877C254.986 56.9114 252.352 59.2577 250.437 62.2264C248.522 65.1951 247.564 68.7384 247.564 72.8563C247.564 76.7827 248.522 80.2781 250.437 83.3426C252.352 86.3113 254.986 88.6576 258.337 90.3814C261.785 92.0094 265.807 92.8234 270.404 92.8234Z"/>
<path d="M0 72.8859C0 66.4911 0 63.2937 0.302783 60.6037C2.84322 38.034 20.791 20.2191 43.5291 17.6975C46.2391 17.397 49.4604 17.397 55.9029 17.397H85.6905V128.375H55.9029C49.4604 128.375 46.2391 128.375 43.5291 128.074C20.791 125.553 2.84322 107.738 0.302783 85.1681C0 82.4781 0 79.2807 0 72.8859Z" fill="#FF3B3B"/>
<path d="M93.0354 17.397H96.2998C123.723 17.397 137.435 17.397 147.91 22.6944C157.123 27.3542 164.614 34.7896 169.308 43.9349C174.645 54.3318 174.645 67.942 174.645 95.1625V128.375H93.0354V17.397Z" fill="#FF3B3B"/>
</svg>
