<?xml version="1.0" encoding="utf-8"?>
<!-- Generator: Adobe Illustrator 17.0.0, SVG Export Plug-In . SVG Version: 6.00 Build 0)  -->
<!DOCTYPE svg PUBLIC "-//W3C//DTD SVG 1.1//EN" "http://www.w3.org/Graphics/SVG/1.1/DTD/svg11.dtd">
<svg version="1.1" id="Capa_1" xmlns="http://www.w3.org/2000/svg" xmlns:xlink="http://www.w3.org/1999/xlink" x="0px" y="0px"
	 width="1015.751px" height="164.668px" viewBox="8.952 -26.846 1015.751 164.668"
	 enable-background="new 8.952 -26.846 1015.751 164.668" xml:space="preserve">
<g>
	<path d="M76.176,112.804l-3.842,16.417H21.684L67.443-2.467h52.92l46.982,131.688h-50.649l-4.366-16.417H76.176z M84.734,81.542
		h19.212l-5.589-23.229c-0.933-3.493-1.981-9.139-3.144-16.941h-1.747L84.734,81.542z"/>
	<path d="M176.426,129.222V-12.422h45.061v141.644H176.426z"/>
	<path d="M248.032-7.968c4.655-3.9,10.594-5.851,17.814-5.851c7.218,0,13.156,1.951,17.814,5.851
		c4.656,3.902,6.986,9.169,6.986,15.806c0,7.221-2.388,12.662-7.161,16.33c-4.776,3.667-10.654,5.501-17.64,5.501
		c-6.986,0-12.867-1.834-17.64-5.501c-4.775-3.668-7.161-9.109-7.161-16.33C241.046,1.201,243.374-4.066,248.032-7.968z
		 M243.316,129.222V36.481h45.061v92.741H243.316z"/>
	<path d="M352.473,36.481l-1.396,16.417h1.396c1.747-5.589,5.152-10.07,10.218-13.448c5.064-3.376,10.624-5.065,16.679-5.065
		c13.506,0,22.356,6.58,26.548,19.736h1.048c5.354-13.156,14.729-19.736,28.119-19.736c10.479,0,18.426,3.493,23.84,10.479
		s8.122,15.894,8.122,26.722v57.635h-43.664V83.288c0-2.56-0.06-4.511-0.175-5.851c-0.117-1.337-0.698-2.764-1.746-4.279
		c-1.048-1.512-2.62-2.271-4.716-2.271c-1.515,0-2.737,0.349-3.668,1.048c-0.933,0.699-1.602,1.776-2.008,3.231
		c-0.409,1.458-0.642,2.707-0.699,3.755c-0.06,1.048-0.087,2.505-0.087,4.367v45.934h-43.663V83.288c0-2.56-0.061-4.511-0.175-5.851
		c-0.117-1.337-0.698-2.764-1.746-4.279c-1.049-1.512-2.62-2.271-4.716-2.271c-1.515,0-2.737,0.349-3.668,1.048
		c-0.934,0.699-1.602,1.776-2.009,3.231c-0.409,1.458-0.641,2.707-0.698,3.755c-0.061,1.048-0.088,2.505-0.088,4.367v45.934h-43.663
		V36.481H352.473z"/>
	<path d="M549.305,129.222l1.397-12.226h-1.048c-4.541,4.89-8.907,8.5-13.099,10.828c-4.192,2.328-9.257,3.493-15.195,3.493
		c-8.034,0-15.107-2.472-21.22-7.423c-6.113-4.947-10.627-11.003-13.536-18.164c-2.912-7.161-4.366-14.641-4.366-22.443
		c0-12.69,3.638-24.015,10.916-33.97c7.275-9.955,17.086-14.933,29.429-14.933c11.642,0,20.666,4.366,27.071,13.099h1.048
		l-1.397-11.003h44.188v92.741H549.305z M526.95,82.415c0,3.96,0.988,7.221,2.97,9.781c1.979,2.562,4.89,3.842,8.732,3.842
		c3.957,0,6.956-1.337,8.994-4.017c2.036-2.677,3.057-5.996,3.057-9.955c0-3.608-1.107-6.577-3.318-8.907
		c-2.213-2.328-5.125-3.493-8.732-3.493c-3.493,0-6.317,1.252-8.471,3.755C528.025,75.925,526.95,78.921,526.95,82.415z"/>
	<path d="M687.452,34.385v45.759c-0.234-0.114-0.698-0.376-1.396-0.786c-0.699-0.407-1.136-0.669-1.311-0.786
		c-0.175-0.115-0.584-0.349-1.223-0.699c-0.641-0.349-1.077-0.581-1.31-0.698c-0.234-0.115-0.642-0.319-1.223-0.611
		c-0.584-0.29-1.048-0.464-1.397-0.524c-0.349-0.058-0.785-0.175-1.31-0.35c-0.524-0.174-1.021-0.289-1.484-0.349
		c-0.467-0.058-0.961-0.115-1.484-0.175c-0.524-0.057-1.078-0.087-1.659-0.087c-5.824,0-10.218,1.632-13.187,4.891
		c-2.97,3.261-4.454,7.802-4.454,13.623v35.629h-45.06V36.481h45.06l-1.048,12.4h1.048c3.843-5.938,8.062-9.895,12.663-11.876
		C673.276,35.026,679.533,34.153,687.452,34.385z"/>
	<path d="M697.931,129.222V-12.422h45.061v83.31h1.048l3.668-7.859l13.972-26.547h52.57l-34.057,45.41l35.804,47.331h-53.095
		l-18.862-34.057h-1.048v34.057H697.931z"/>
	<path d="M926.028,90.449h-65.495c0,10.597,3.551,15.894,10.654,15.894c2.327,0,4.306-0.726,5.938-2.183
		c1.63-1.455,2.678-3.289,3.145-5.502h43.838c-2.795,10.479-9.257,18.543-19.387,24.189c-10.13,5.649-21.076,8.471-32.835,8.471
		c-15.719,0-28.965-4.044-39.733-12.138c-10.771-8.091-16.155-19.706-16.155-34.843c0-15.02,5.092-27.099,15.282-36.241
		c10.187-9.139,22.85-13.71,37.986-13.71c16.999,0,30.972,5.125,41.917,15.369C922.125,60.002,927.075,73.567,926.028,90.449z
		 M860.532,71.237h21.133c0-3.258-1.048-6.083-3.144-8.471c-2.096-2.385-4.716-3.58-7.859-3.58c-3.261,0-5.764,1.135-7.51,3.406
		C861.406,64.862,860.532,67.744,860.532,71.237z"/>
	<path d="M992.047,6.615v31.088l15.02-0.699V72.46l-15.02-0.873v57.635h-45.41V71.586l-11.003,0.873V37.005l11.003,0.699V6.615
		H992.047z"/>
</g>
</svg>
