<svg height="40px" viewBox="0 0 184 50" aria-hidden="true" fill="#222222" xmlns="http://www.w3.org/2000/svg"><g><path d="M14.25,45.45H3L21.57,3.44h11.28L14.25,45.45Z" fill="#3B6BE3"></path><path fill-rule="evenodd" clip-rule="evenodd" d="M123.07,2.34c12.49,0,22.55,9.8,22.55,22.55s-10.14,22.78-22.66,22.78-22.67-9.86-22.67-22.63S110.57,2.34,123.07,2.34ZM164.19,2.34c10.8,0,15.25,6.74,16.03,12.38l-9.52,2.67c-.51-3.47-2.66-5.99-6.56-5.99-3.38,0-4.99,2.25-4.99,3.95,0,1.42.67,3.04,3.18,3.53l6.17,1.18c8.07,1.55,12.49,6.47,12.49,12.87,0,6.95-6.01,13.64-16.3,13.64-10.77.01-16.55-5.62-17.97-13.73l9.7-2.3c.7,5.11,4.42,6.95,8.34,6.95s5.3-2.3,5.3-4.09c0-1.45-.84-2.86-3.68-3.43l-5.92-1.15c-7.08-1.36-12.09-5.8-12.09-12.63,0-8.13,7.43-13.85,15.81-13.85ZM96.98,3.44v42.01h-9.95V3.44h9.95ZM56.02,3.44l7.36,12.43,7.53-12.43h12.79l-13.97,20.53,13.92,21.48h-11.55l-8.72-13.3-8.8,13.3h-14.12L21.8,3.46h11.29l14.99,33.9,9.14-13.38L43.07,3.44h12.96ZM122.98,12.69c-6.63,0-11.52,5.74-11.52,12.26s4.91,12.32,11.52,12.32,11.49-5.8,11.49-12.32-4.89-12.26-11.49-12.26Z" fill="#222222"></path></g></svg>
