<svg width="497" height="74" viewBox="0 0 497 74" fill="none" xmlns="http://www.w3.org/2000/svg">
<path d="M41.9486 61.0448V72.1673H0V1.43848H41.4512V12.5608H11.3431V30.948H38.9835V41.9528H11.3431V61.0448H41.9486Z" fill="black"/>
<path d="M52.0859 1.43848H62.7404V72.1673H52.0859V1.43848Z" fill="black"/>
<path d="M153.596 63.468C159.526 63.468 163.964 60.7462 166.336 57.202L175.116 62.4496C170.583 69.3228 163.18 73.4545 153.501 73.4545C137.223 73.4545 126.645 62.0384 126.645 46.8822C126.645 31.922 137.203 20.3101 152.697 20.3101C167.407 20.3101 177.469 32.4311 177.469 46.9801C177.469 48.488 177.277 50.1131 177.067 51.523H137.796C139.479 59.4146 145.696 63.468 153.596 63.468ZM166.719 42.6525C165.246 33.9584 159.01 30.2184 152.602 30.2184C144.606 30.2184 139.174 35.0746 137.701 42.6525H166.719Z" fill="black"/>
<path d="M198.496 20.626V21.6442H210.145V32.1596H198.496V72.1648H187.842V32.14H180.344V21.6247H187.842V20.6064C187.842 6.95805 195.34 -0.913777 210.145 0.084884V10.6002C202.647 9.91487 198.496 12.8521 198.496 20.626Z" fill="black"/>
<path d="M237.284 63.468C243.214 63.468 247.651 60.7462 250.023 57.202L258.803 62.4496C254.27 69.3228 246.867 73.4545 237.188 73.4545C220.91 73.4545 210.332 62.0384 210.332 46.8822C210.332 31.922 220.891 20.3101 236.385 20.3101C251.094 20.3101 261.156 32.4311 261.156 46.9801C261.156 48.488 260.965 50.1131 260.754 51.523H221.503C223.167 59.4146 229.384 63.468 237.284 63.468ZM250.406 42.6525C248.933 33.9584 242.697 30.2184 236.289 30.2184C228.293 30.2184 222.861 35.0746 221.388 42.6525H250.406Z" fill="black"/>
<path d="M295.412 20.7231V32.5504C288.411 32.0413 280.205 35.3704 280.205 46.6885V72.1445H269.551V21.6239H280.205V30.1027C283.17 23.2492 289.195 20.7231 295.412 20.7231Z" fill="black"/>
<path d="M324.249 63.468C330.179 63.468 334.616 60.7462 336.988 57.202L345.768 62.4496C341.234 69.3228 333.832 73.4545 324.153 73.4545C307.875 73.4545 297.297 62.0384 297.297 46.8822C297.297 31.922 307.855 20.3101 323.35 20.3101C338.059 20.3101 348.121 32.4311 348.121 46.9801C348.121 48.488 347.93 50.1131 347.719 51.523H308.429C310.132 59.4146 316.349 63.468 324.249 63.468ZM337.371 42.6525C335.898 33.9584 329.681 30.2184 323.254 30.2184C315.258 30.2184 309.826 35.0746 308.353 42.6525H337.371Z" fill="black"/>
<path d="M401.423 41.1253V72.1426H390.767V42.2413C390.767 34.5655 386.425 30.5121 379.714 30.5121C372.71 30.5121 367.183 34.7613 367.183 45.0611V72.1426H356.527V21.622H367.183V28.084C370.436 22.8361 375.773 20.3101 382.488 20.3101C393.524 20.3101 401.423 28.0056 401.423 41.1253Z" fill="black"/>
<path d="M427.173 32.1415V56.3836C427.173 62.8456 431.325 62.7476 439.414 62.3364V72.1467C423.024 74.1637 416.521 69.5228 416.521 56.3836V32.1415H407.434V21.6262H416.521V10.7193L427.173 7.48828V21.6262H439.414V32.1415H427.173Z" fill="black"/>
<path d="M470.31 63.468C476.239 63.468 480.676 60.7462 483.049 57.202L491.829 62.4496C487.296 69.3228 479.89 73.4545 470.211 73.4545C453.933 73.4545 443.355 62.0384 443.355 46.8822C443.355 31.922 453.916 20.3101 469.407 20.3101C484.12 20.3101 494.18 32.4311 494.18 46.9801C494.18 48.488 493.99 50.1131 493.778 51.523H454.49C456.193 59.4146 462.407 63.468 470.31 63.468ZM483.429 42.6525C481.956 33.9584 475.742 30.2184 469.312 30.2184C461.318 30.2184 455.886 35.0746 454.413 42.6525H483.429Z" fill="black"/>
<path d="M109.274 44.6746C117.366 41.346 122.989 33.2586 122.989 24.1727C122.989 11.5426 113.119 1.43848 100.781 1.43848H73.1406V12.3454H84.4839H100.762C106.788 12.3454 111.627 17.4954 111.627 24.1727C111.627 30.7326 106.788 36 100.762 36H84.4839H73.1406V72.1673H84.4839V46.3977H97.912L112.526 72.1673H124.959L109.274 44.6746Z" fill="black"/>
</svg>
