<svg width="350" height="93" viewBox="0 0 350 93" fill="none" xmlns="http://www.w3.org/2000/svg">
<path d="M158.202 56.2849C156.327 57.3749 154.941 57.8789 153.31 57.8789C150.373 57.8789 148.173 55.6939 148.173 52.0019C148.173 47.3809 150.703 44.8589 158.201 44.3559L158.202 56.2849ZM162.351 61.7329H172.908V60.5559L168.61 58.5419L168.634 33.8529C168.634 26.2949 164.313 22.3479 157.06 22.3479C149.396 22.3479 138.557 26.1269 138.557 33.1829C138.557 36.1229 140.514 38.7269 143.855 38.7269C146.871 38.7269 148.993 36.1229 148.993 33.3509C148.993 31.2519 147.85 28.6489 145.566 26.7989C146.886 26.5754 148.223 26.4633 149.562 26.4639C156.326 26.4639 158.202 29.8239 158.202 34.6119V42.3399C145.73 42.4239 137.254 46.5399 137.254 54.2689C137.254 59.4779 141.004 63.0889 147.115 63.0889C151.679 63.0889 155.268 60.9039 158.202 57.7959L158.608 57.9659C158.657 60.0549 160.266 61.7329 162.351 61.7329ZM284.49 4.20088H296.058L287.545 17.5089H280.972L284.49 4.20088ZM249.637 10.8719C249.637 7.18487 252.533 4.19887 256.112 4.19887C259.691 4.19887 262.59 7.18487 262.59 10.8719C262.59 14.5569 259.692 17.5449 256.112 17.5449C252.531 17.5449 249.637 14.5569 249.637 10.8719ZM341.596 33.9389C341.596 27.9759 338.908 22.3469 331.569 22.3469C327.173 22.3469 322.446 24.6139 317.632 29.3189L317.305 29.1509L317.284 23.6069H302.869V24.7729L307.529 27.0859V58.5539L303.226 60.5719V61.7479H321.441V60.5699L317.957 58.5519V30.7489C320.728 29.5719 322.523 29.1509 325.375 29.1509C330.021 29.1509 331.162 32.5959 331.162 37.3009V58.5519L327.092 60.5699V61.7459H345.9V60.5699L341.597 58.5519L341.596 33.9389ZM251.383 27.0949V58.5529L246.839 60.5709V61.7479H266.117V60.5699L261.814 58.5519V23.6059H246.648V24.7929L251.383 27.0949ZM125.893 43.7189C125.893 55.5659 122.062 59.9299 117.906 59.9299C114.319 59.9299 112.198 58.4229 110.242 55.3129V29.0179C112.279 28.5149 114.072 28.2629 115.785 28.2629C122.307 28.2629 125.893 32.9669 125.893 43.7189ZM99.8102 78.2529L95.5112 80.2719V81.3629H115.356V80.2719L110.242 78.2529V62.1189C111.954 62.4529 113.667 62.6209 115.296 62.6209C129.071 62.6209 137.058 52.4569 137.058 41.1139C137.058 29.5229 130.537 21.8789 122.631 21.8789C117.822 21.8789 113.013 24.7339 110 27.6759L109.671 27.5079L109.674 23.6079H95.1662V24.7859L99.7912 27.0559L99.8102 78.2529ZM293.061 42.2069C293.061 52.7079 290.536 59.8479 284.666 59.8479C278.796 59.8479 276.27 52.7079 276.27 42.2069C276.27 31.7079 278.794 24.5669 284.666 24.5669C290.534 24.5679 293.061 31.7079 293.061 42.2069ZM304.229 42.2069C304.229 31.4559 298.28 21.8789 285.157 21.8789C272.114 21.8789 265.104 32.1269 265.104 42.2069C265.104 53.0439 271.053 62.6209 284.18 62.6209C297.3 62.6209 304.229 52.2909 304.229 42.2069ZM247.051 49.8529C247.051 42.5439 241.345 39.9429 236.045 37.7569C231.399 35.8259 227.001 34.1449 227.001 29.8609C227.001 27.3399 228.791 24.7359 231.967 24.7359C235.885 24.7359 238 27.3399 242.894 34.1439L244.521 33.8089L244.279 23.3909C241.995 22.5499 237.267 21.8799 234.091 21.8799C225.29 21.8799 218.933 27.3399 218.933 33.9759C218.933 41.3679 224.635 43.9729 229.937 46.2439C234.581 48.1709 238.904 49.8519 238.904 54.0559C238.904 57.4149 236.945 59.7639 233.687 59.7639C229.447 59.7639 226.433 56.9949 220.482 48.6789L218.851 48.8439L219.093 60.3519C222.849 61.8669 227.004 62.6229 231.894 62.6229C239.713 62.6209 247.051 57.6659 247.051 49.8529ZM213.044 33.9389C213.044 27.9759 210.353 22.3469 203.017 22.3469C198.615 22.3469 193.883 24.6139 189.079 29.3189L188.752 29.1509L188.731 23.6069H174.314V24.7729L178.972 27.0859V58.5539L174.672 60.5579V61.7459H192.888V60.5699L189.402 58.5539V30.7489C192.174 29.5719 193.969 29.1509 196.824 29.1509C201.47 29.1509 202.611 32.5959 202.611 37.3009V58.5519L199.129 60.5699V61.7459H217.344V60.5699L213.047 58.5519L213.044 33.9389ZM76.2112 37.5529L69.8562 26.4639L73.5022 24.7849V23.6069H53.7362V24.7849L57.6272 26.4639L69.6102 44.6929L58.5252 58.3029L54.2242 60.5729V61.7499H67.6302V60.5729L64.3102 58.7229L71.5642 47.7159L78.1672 58.8069L74.2742 60.5729V61.7499H94.2862V60.5729L90.3922 58.8069L78.0061 40.4909L88.6842 27.0529L93.3082 24.7839V23.6059H79.6582V24.7839L82.8132 26.7149L76.2112 37.5529ZM50.7602 4.17188H4.41016V5.70888L11.4482 7.87687V58.0369L4.41016 60.2079V61.7449H52.6002L54.2672 43.0339L52.6002 42.6739L45.4962 52.0699C42.6032 55.8729 39.7082 57.7659 34.7982 58.0389L24.0102 58.5799V34.9019H26.9922C31.9922 34.9019 33.9202 36.7129 36.0242 42.3129L37.0792 45.1179H38.9202V20.7999H37.0792L36.0242 23.7839C34.0082 29.3879 31.9922 31.1969 26.9922 31.1969H24.0102V7.24487L31.9912 7.60588C38.1282 7.87688 40.3222 9.50188 43.4792 14.1139L50.3202 24.0539L51.9872 23.6009L50.7602 4.17188Z" fill="#F8EDDF" stroke="#F8EDDF" stroke-width="6" stroke-miterlimit="10"/>
<path d="M157.789 56.114C155.914 57.206 154.529 57.71 152.896 57.71C149.961 57.71 147.76 55.523 147.76 51.831C147.76 47.212 150.291 44.69 157.787 44.185L157.789 56.114ZM161.939 61.562H172.498V60.386L168.199 58.373L168.222 33.683C168.222 26.124 163.9 22.176 156.647 22.176C148.983 22.176 138.144 25.955 138.144 33.011C138.144 35.951 140.101 38.555 143.442 38.555C146.459 38.555 148.581 35.951 148.581 33.179C148.581 31.079 147.437 28.477 145.154 26.627C146.474 26.4031 147.81 26.291 149.148 26.292C155.914 26.292 157.789 29.65 157.789 34.438V42.165C145.316 42.25 136.841 46.368 136.841 54.096C136.841 59.304 140.591 62.914 146.702 62.914C151.266 62.914 154.854 60.729 157.788 57.623L158.193 57.791C158.247 59.885 159.856 61.562 161.939 61.562ZM284.081 4.03H295.649L287.138 17.34H280.564L284.081 4.03ZM249.225 10.701C249.225 7.014 252.121 4.027 255.701 4.027C259.281 4.027 262.179 7.014 262.179 10.701C262.179 14.386 259.281 17.375 255.701 17.375C252.121 17.375 249.225 14.385 249.225 10.701ZM341.184 33.767C341.184 27.804 338.496 22.176 331.158 22.176C326.762 22.176 322.035 24.443 317.221 29.149L316.895 28.98L316.874 23.436H302.458V24.603L307.118 26.916V58.386L302.815 60.401V61.577H321.032V60.401L317.546 58.386V30.576C320.318 29.4 322.114 28.978 324.964 28.978C329.614 28.978 330.753 32.423 330.753 37.128V58.381L326.681 60.397V61.572H345.489V60.397L341.185 58.381V33.767H341.184ZM250.972 26.923V58.383L246.429 60.399V61.575H265.705V60.399L261.401 58.383V23.434H246.238V24.622L250.972 26.923ZM125.484 43.547C125.484 55.393 121.654 59.758 117.498 59.758C113.911 59.758 111.79 58.25 109.834 55.142V28.847C111.871 28.344 113.664 28.092 115.376 28.092C121.897 28.092 125.484 32.794 125.484 43.547ZM99.4 78.081L95.102 80.099V81.192H114.948V80.099L109.835 78.081V61.945C111.5 62.2748 113.192 62.4439 114.889 62.45C128.664 62.45 136.65 52.284 136.65 40.943C136.65 29.352 130.13 21.708 122.225 21.708C117.417 21.708 112.608 24.563 109.593 27.505L109.265 27.338L109.269 23.437H94.755V24.614L99.38 26.885L99.4 78.081ZM292.652 42.034C292.652 52.535 290.127 59.674 284.256 59.674C278.385 59.674 275.861 52.535 275.861 42.034C275.861 31.536 278.384 24.395 284.256 24.395C290.125 24.396 292.652 31.536 292.652 42.034ZM303.819 42.034C303.819 31.284 297.871 21.707 284.748 21.707C271.705 21.707 264.693 31.957 264.693 42.034C264.693 52.871 270.642 62.45 283.769 62.45C296.889 62.45 303.819 52.118 303.819 42.034ZM246.64 49.681C246.64 42.372 240.934 39.77 235.633 37.584C230.987 35.652 226.59 33.971 226.59 29.688C226.59 27.167 228.379 24.563 231.557 24.563C235.476 24.563 237.59 27.167 242.481 33.971L244.111 33.636L243.868 23.219C241.583 22.38 236.856 21.708 233.68 21.708C224.876 21.708 218.521 27.168 218.521 33.806C218.521 41.197 224.223 43.804 229.524 46.072C234.169 48.003 238.493 49.682 238.493 53.885C238.493 57.244 236.534 59.594 233.274 59.594C229.036 59.594 226.022 56.824 220.068 48.508L218.437 48.672L218.681 60.183C222.434 61.696 226.593 62.454 231.482 62.454C239.303 62.45 246.64 57.493 246.64 49.681ZM212.633 33.767C212.633 27.804 209.941 22.176 202.604 22.176C198.205 22.176 193.474 24.443 188.668 29.149L188.342 28.98L188.321 23.436H173.902V24.603L178.56 26.916V58.386L174.261 60.389V61.577H192.476V60.4L188.991 58.385V30.576C191.764 29.4 193.557 28.978 196.413 28.978C201.058 28.978 202.198 32.423 202.198 37.128V58.381L198.718 60.397V61.572H216.932V60.397L212.635 58.381L212.633 33.767ZM75.801 37.381L69.446 26.293L73.092 24.612V23.435H53.325V24.612L57.217 26.293L69.199 44.521L58.114 58.129L53.812 60.399V61.575H67.22V60.399L63.898 58.551L71.153 47.541L77.756 58.633L73.864 60.399V61.575H93.874V60.399L89.98 58.633L77.596 40.319L88.274 26.881L92.897 24.61V23.433H79.247V24.61L82.403 26.541L75.801 37.381ZM50.349 4H4V5.536L11.038 7.704V57.866L4 60.036V61.57H52.189L53.856 42.861L52.189 42.504L45.085 51.9C42.191 55.702 39.297 57.596 34.389 57.868L23.601 58.407V34.73H26.584C31.583 34.73 33.511 36.542 35.616 42.143L36.67 44.946H38.512V20.629H36.67L35.616 23.612C33.599 29.216 31.582 31.025 26.584 31.025H23.601V7.073L31.582 7.434C37.721 7.705 39.913 9.33 43.07 13.942L49.911 23.88L51.578 23.428L50.349 4Z" fill="#171614"/>
</svg>
