<svg width="498" height="86" viewBox="0 0 498 86" fill="none" xmlns="http://www.w3.org/2000/svg">
<g clip-path="url(#clip0_2523_1955)">
<path d="M119.22 4.20012C119.22 4.20012 108.42 12.2001 102.33 4.4901C101.87 3.9001 113.33 -3.36988 119.22 4.20012Z" fill="#6DBD46"/>
<path d="M25.4781 14.15C25.4428 13.7451 25.3485 13.3476 25.1981 12.97C25.1041 12.7249 24.9533 12.5055 24.7581 12.33C24.5959 12.2025 24.3944 12.1353 24.1881 12.14H2.74813C2.01807 12.1079 1.30311 12.3546 0.748132 12.83C0.461679 13.1215 0.242519 13.4722 0.106042 13.8575C-0.0304354 14.2427 -0.0809292 14.6532 -0.0418769 15.06V56.37C-0.0495306 56.6139 0.0322836 56.8522 0.188134 57.04C0.392502 57.2669 0.655472 57.4329 0.948129 57.52C1.40887 57.6704 1.88529 57.7678 2.36813 57.81C3.86121 57.9564 5.36505 57.9564 6.85813 57.81C7.34374 57.7644 7.8231 57.6671 8.28813 57.52C8.58189 57.4354 8.84551 57.2689 9.04813 57.04C9.19012 56.846 9.26394 56.6104 9.25813 56.37V39.37H23.2581C23.4625 39.3712 23.6607 39.3004 23.8181 39.17C24.0155 38.9924 24.1666 38.7693 24.2581 38.52C24.4039 38.1479 24.4981 37.7576 24.5381 37.36C24.6582 36.1897 24.6582 35.0103 24.5381 33.84C24.5004 33.4517 24.4061 33.071 24.2581 32.71C24.162 32.4774 24.011 32.2716 23.8181 32.11C23.6526 31.9987 23.4576 31.9396 23.2581 31.94H9.30813V19.71H24.1981C24.4073 19.7117 24.61 19.637 24.7681 19.5C24.9566 19.3225 25.1064 19.108 25.2081 18.87C25.358 18.5027 25.4523 18.1151 25.4881 17.72C25.5541 17.129 25.5842 16.5346 25.5781 15.94C25.5836 15.3421 25.5536 14.7443 25.4881 14.15" fill="#D0232A"/>
<path d="M70.9811 34.4C71.0461 30.9285 70.5911 27.4668 69.6311 24.13C68.8597 21.4583 67.492 18.9965 65.6311 16.93C63.8068 14.9959 61.5327 13.5429 59.0111 12.7C56.0614 11.7402 52.9727 11.2772 49.8711 11.33C46.6204 11.2635 43.3875 11.8272 40.3511 12.99C37.717 14.0173 35.3581 15.6435 33.4611 17.74C31.5457 19.9202 30.1173 22.4839 29.2711 25.26C28.2959 28.4852 27.8204 31.8408 27.8611 35.21C27.799 38.7293 28.247 42.2391 29.1911 45.63C29.9486 48.3253 31.3174 50.8096 33.1911 52.89C35.0084 54.8252 37.2756 56.2817 39.7911 57.13C42.7839 58.1134 45.9215 58.5833 49.0711 58.52C52.3099 58.5813 55.5308 58.0247 58.5611 56.88C61.1977 55.8573 63.5576 54.2304 65.4511 52.13C67.3714 49.9266 68.7998 47.3391 69.6411 44.54C70.6169 41.25 71.0889 37.8313 71.0411 34.4M61.3311 34.89C61.3397 36.9644 61.142 39.0346 60.7411 41.07C60.4055 42.8788 59.7266 44.6065 58.7411 46.16C57.8179 47.5996 56.5495 48.7855 55.0511 49.61C53.2872 50.5133 51.3216 50.9505 49.3411 50.88C47.3912 50.9477 45.4516 50.5679 43.6711 49.77C42.1959 49.055 40.9517 47.9391 40.0811 46.55C39.1312 44.9889 38.4865 43.2616 38.1811 41.46C37.7849 39.2458 37.5974 36.9993 37.6211 34.75C37.6102 32.709 37.8045 30.6721 38.2011 28.67C38.538 26.8896 39.2172 25.1915 40.2011 23.67C41.1308 22.2384 42.3979 21.0571 43.8911 20.23C45.6541 19.3232 47.6198 18.8826 49.6011 18.95C51.5412 18.8841 53.4696 19.2746 55.2311 20.09C56.701 20.83 57.9471 21.9484 58.8411 23.33C59.7997 24.8562 60.4518 26.5545 60.7611 28.33C61.1583 30.4836 61.3492 32.6701 61.3311 34.86" fill="#D0232A"/>
<path d="M164.919 34.2599C164.981 31.0126 164.47 27.7797 163.409 24.7099C162.479 22.0982 160.968 19.732 158.989 17.7899C156.95 15.8683 154.507 14.4265 151.839 13.5699C148.491 12.5427 145 12.0598 141.499 12.1399H129.809C129.096 12.1195 128.401 12.3655 127.859 12.8299C127.571 13.1205 127.35 13.4709 127.212 13.8561C127.074 14.2414 127.021 14.6523 127.059 15.0599V54.8099C127.021 55.2175 127.072 55.6286 127.211 56.014C127.349 56.3994 127.57 56.7497 127.859 57.0399C128.401 57.5043 129.096 57.7503 129.809 57.7299H140.689C144.218 57.7968 147.738 57.3522 151.139 56.4099C153.903 55.617 156.448 54.2007 158.579 52.2699C160.711 50.2622 162.323 47.7676 163.279 44.9999C164.453 41.551 165.008 37.9219 164.919 34.2799M155.339 34.5899C155.381 36.9191 155.092 39.2424 154.479 41.4899C153.988 43.3133 153.096 45.0043 151.869 46.4399C150.695 47.7859 149.203 48.8171 147.529 49.4399C145.47 50.1547 143.299 50.4934 141.119 50.4399H136.309V19.4399H140.989C143.339 19.3526 145.683 19.7403 147.879 20.5799C149.547 21.2834 151.022 22.3775 152.179 23.7699C153.318 25.1889 154.145 26.8309 154.609 28.5899C155.121 30.5484 155.373 32.5657 155.359 34.5899" fill="#D0232A"/>
<path d="M122.929 21.97C119.529 8.26 104.639 11.63 99.8191 13.11L103.239 0C99.1791 1.15 97.8291 7.45 97.4492 13C92.3292 11.48 77.9791 8.53 74.6591 22C70.5991 38.41 76.7091 58.72 95.2491 58.72C96.3603 58.2124 97.5676 57.9498 98.7891 57.9498C100.011 57.9498 101.218 58.2124 102.329 58.72C120.879 58.69 126.989 38.38 122.929 21.97Z" fill="#D0232A"/>
<path d="M202.361 25.5301C202.375 26.4437 202.209 27.351 201.871 28.2001C201.543 28.986 201.04 29.687 200.401 30.2501C199.678 30.853 198.842 31.3052 197.941 31.5801C196.829 31.9107 195.672 32.0693 194.511 32.0501H189.811V19.1901H193.951C194.776 19.1785 195.6 19.2119 196.421 19.2901C196.956 19.3536 197.487 19.4471 198.011 19.5701C199.355 19.8537 200.544 20.6318 201.341 21.7501C202.044 22.8824 202.392 24.1986 202.341 25.5301M214.221 56.3101C214.207 55.9709 214.15 55.6348 214.051 55.3101C213.931 54.9101 213.701 54.3101 213.351 53.3701L209.531 44.4301C209.126 43.4433 208.669 42.4787 208.161 41.5401C207.724 40.7428 207.226 39.9805 206.671 39.2601C206.179 38.6308 205.615 38.0604 204.991 37.5601C204.398 37.0983 203.758 36.6995 203.081 36.3701C204.406 35.9587 205.668 35.3664 206.831 34.6101C207.891 33.9211 208.827 33.0591 209.601 32.0601C210.356 31.0492 210.931 29.916 211.301 28.7101C211.695 27.3591 211.887 25.9572 211.871 24.5501C211.903 22.9209 211.632 21.3001 211.071 19.7701C210.553 18.4182 209.76 17.1889 208.741 16.1601C207.67 15.1073 206.407 14.2689 205.021 13.6901C203.449 13.0261 201.794 12.5786 200.101 12.3601C199.471 12.2901 198.761 12.2301 197.991 12.1801C197.221 12.1301 196.241 12.1101 195.051 12.1101H183.311C182.6 12.0898 181.906 12.3318 181.361 12.7901C181.075 13.0816 180.856 13.4323 180.719 13.8176C180.583 14.2028 180.532 14.6132 180.571 15.0201V56.2101C180.568 56.4379 180.642 56.6601 180.781 56.8401C180.975 57.0635 181.234 57.2208 181.521 57.2901C181.983 57.4356 182.459 57.5328 182.941 57.5801C183.679 57.6552 184.42 57.6886 185.161 57.6801C185.913 57.6893 186.664 57.6559 187.411 57.5801C187.887 57.5311 188.356 57.4339 188.811 57.2901C189.101 57.2179 189.362 57.0613 189.561 56.8401C189.708 56.6628 189.79 56.4403 189.791 56.2101V38.9601H192.661C193.549 38.9424 194.431 39.0952 195.261 39.4101C196.015 39.7154 196.696 40.1753 197.261 40.7601C197.881 41.4289 198.405 42.1791 198.821 42.9901C199.291 43.8801 199.771 44.8901 200.261 46.0401L204.311 56.1701C204.395 56.4246 204.513 56.6668 204.661 56.8901C204.85 57.118 205.1 57.2879 205.381 57.3801C205.831 57.5286 206.299 57.616 206.771 57.6401C207.351 57.6901 208.131 57.7101 209.121 57.7101C210.281 57.7101 211.211 57.7101 211.881 57.6401C212.406 57.6184 212.926 57.5345 213.431 57.3901C213.698 57.3349 213.933 57.1814 214.091 56.9601C214.194 56.7592 214.242 56.5352 214.231 56.3101" fill="#D0232A"/>
<path d="M244.702 52.1903C244.663 51.8106 244.576 51.4375 244.442 51.0802C244.354 50.8406 244.201 50.6297 244.002 50.4703C243.835 50.3442 243.631 50.2773 243.422 50.2803H227.092V37.4803H240.792C240.998 37.4848 241.201 37.4254 241.372 37.3103C241.571 37.1632 241.724 36.9618 241.812 36.7303C241.947 36.3873 242.035 36.0272 242.072 35.6603C242.139 35.1028 242.169 34.5416 242.162 33.9803C242.167 33.4223 242.137 32.8645 242.072 32.3103C242.035 31.9401 241.948 31.5767 241.812 31.2303C241.721 30.9947 241.569 30.7876 241.372 30.6303C241.205 30.5042 241.001 30.4373 240.792 30.4403H227.092V19.3602H243.312C243.515 19.3651 243.714 19.2978 243.872 19.1702C244.065 19.0093 244.211 18.7983 244.292 18.5603C244.431 18.204 244.522 17.8307 244.562 17.4503C244.619 16.8988 244.645 16.3446 244.642 15.7903C244.646 15.2093 244.619 14.6284 244.562 14.0502C244.519 13.6671 244.428 13.2908 244.292 12.9302C244.219 12.6883 244.072 12.4752 243.872 12.3203C243.71 12.1999 243.513 12.1366 243.312 12.1402H220.642C219.931 12.1209 219.237 12.3628 218.692 12.8203C218.408 13.1133 218.19 13.4642 218.054 13.8491C217.917 14.2339 217.866 14.6436 217.902 15.0502V54.5903C217.866 54.9969 217.917 55.4066 218.054 55.7914C218.19 56.1763 218.408 56.5272 218.692 56.8203C219.237 57.2777 219.931 57.5196 220.642 57.5003H243.422C243.631 57.5032 243.835 57.4363 244.002 57.3103C244.202 57.1471 244.354 56.9328 244.442 56.6903C244.576 56.3365 244.664 55.9667 244.702 55.5903C244.822 54.4601 244.822 53.3204 244.702 52.1903Z" fill="#D0232A"/>
<path d="M282.581 14.1401C282.539 13.7383 282.451 13.3425 282.321 12.9602C282.235 12.7135 282.083 12.4954 281.881 12.3301C281.712 12.2079 281.509 12.1415 281.301 12.1401H249.311C249.099 12.1394 248.892 12.2059 248.721 12.3301C248.525 12.4972 248.38 12.7153 248.301 12.9602C248.161 13.3405 248.071 13.737 248.031 14.1401C247.969 14.7347 247.942 15.3324 247.951 15.9302C247.943 16.5079 247.97 17.0856 248.031 17.6602C248.074 18.0539 248.168 18.4404 248.311 18.8102C248.393 19.0592 248.537 19.2831 248.731 19.4602C248.895 19.601 249.105 19.6758 249.321 19.6701H260.681V56.2302C260.683 56.4604 260.764 56.6829 260.911 56.8601C261.11 57.0813 261.372 57.238 261.661 57.3102C262.124 57.45 262.6 57.547 263.081 57.6002C263.822 57.6753 264.566 57.7087 265.311 57.7002C266.052 57.709 266.793 57.6756 267.531 57.6002C268.012 57.5481 268.488 57.451 268.951 57.3102C269.242 57.2355 269.505 57.0793 269.711 56.8601C269.854 56.6815 269.932 56.4592 269.931 56.2302V19.6802H281.311C281.522 19.679 281.727 19.6048 281.891 19.4702C282.085 19.2897 282.229 19.0624 282.311 18.8102C282.442 18.4348 282.529 18.0455 282.571 17.6502C282.636 17.0758 282.666 16.4981 282.661 15.9201C282.666 15.3222 282.636 14.7245 282.571 14.1302" fill="#D0232A"/>
<path d="M302.309 40.0802H289.449L295.869 20.8102L302.309 40.0802ZM317.239 56.0802C317.118 55.4001 316.94 54.7312 316.709 54.0802L302.709 13.8802C302.605 13.502 302.432 13.1461 302.199 12.8302C301.941 12.5298 301.589 12.3254 301.199 12.2502C300.574 12.0978 299.933 12.0139 299.289 12.0002C298.469 12.0002 297.379 11.9502 295.999 11.9502C294.809 11.9502 293.849 11.9502 293.119 12.0002C292.545 12.0157 291.974 12.0997 291.419 12.2502C291.071 12.3387 290.76 12.5347 290.529 12.8102C290.313 13.1147 290.147 13.4524 290.039 13.8102L276.039 54.0502C275.806 54.6998 275.632 55.3692 275.519 56.0502C275.475 56.2462 275.473 56.4497 275.514 56.6465C275.556 56.8434 275.639 57.0288 275.759 57.1902C276.105 57.5045 276.553 57.6823 277.019 57.6902C277.86 57.7728 278.705 57.8095 279.549 57.8002C280.549 57.8002 281.359 57.8002 281.979 57.7302C282.469 57.7083 282.953 57.6208 283.419 57.4702C283.713 57.3699 283.97 57.1856 284.159 56.9402C284.322 56.6878 284.444 56.4109 284.519 56.1202L287.399 47.2502H304.399L307.459 56.3602C307.531 56.6256 307.65 56.8762 307.809 57.1002C308 57.3202 308.256 57.4742 308.539 57.5402C309.041 57.6622 309.554 57.7325 310.069 57.7502C310.729 57.7502 311.659 57.7502 312.849 57.7502C314.039 57.7502 314.899 57.7502 315.549 57.6602C316.042 57.6581 316.521 57.5007 316.919 57.2102C317.054 57.0626 317.15 56.8841 317.199 56.6904C317.248 56.4967 317.248 56.2939 317.199 56.1002" fill="#D0232A"/>
<path d="M329.398 13.4C329.399 13.171 329.322 12.9486 329.178 12.77C328.973 12.5508 328.709 12.3947 328.418 12.32C327.963 12.1792 327.493 12.0854 327.018 12.04C326.275 11.9599 325.527 11.9231 324.778 11.93C324.04 11.9236 323.302 11.9603 322.568 12.04C322.087 12.0867 321.611 12.1805 321.148 12.32C320.853 12.3902 320.585 12.5469 320.378 12.77C320.232 12.9473 320.15 13.1698 320.148 13.4V56.24C320.15 56.4702 320.232 56.6927 320.378 56.87C320.578 57.0912 320.839 57.2479 321.128 57.32C321.591 57.4646 322.066 57.5618 322.548 57.61C323.289 57.6851 324.034 57.7185 324.778 57.71C325.526 57.7195 326.274 57.6861 327.018 57.61C327.494 57.5621 327.963 57.4649 328.418 57.32C328.709 57.2453 328.973 57.0892 329.178 56.87C329.322 56.6914 329.399 56.469 329.398 56.24V13.4Z" fill="#D0232A"/>
<path d="M358.86 51.87C358.819 51.4767 358.728 51.0903 358.59 50.72C358.51 50.4702 358.357 50.2504 358.15 50.09C357.974 49.9581 357.759 49.8878 357.54 49.89H343.31V13.4C343.311 13.171 343.233 12.9486 343.09 12.77C342.884 12.5508 342.621 12.3947 342.33 12.32C341.874 12.1802 341.405 12.0864 340.93 12.04C340.186 11.9599 339.438 11.9231 338.69 11.93C337.945 11.9242 337.2 11.961 336.46 12.04C335.978 12.0856 335.502 12.1794 335.04 12.32C334.751 12.3922 334.489 12.5488 334.29 12.77C334.143 12.9473 334.062 13.1698 334.06 13.4V54.59C334.021 54.9969 334.071 55.4073 334.208 55.7926C334.344 56.1778 334.563 56.5285 334.85 56.82C335.393 57.28 336.088 57.5222 336.8 57.5H357.58C357.802 57.5059 358.018 57.4314 358.19 57.29C358.398 57.1094 358.55 56.8736 358.63 56.61C358.765 56.2217 358.856 55.8191 358.9 55.41C359.006 54.2324 359.006 53.0476 358.9 51.87" fill="#D0232A"/>
<path d="M358.101 34.48C358.189 34.1824 358.32 33.8993 358.491 33.6399C358.695 33.3313 358.937 33.0491 359.211 32.7999C359.55 32.482 359.922 32.2005 360.321 31.9599C360.641 32.3733 361.001 32.7933 361.401 33.2199C361.801 33.6466 362.211 34.0766 362.631 34.5099C363.051 34.9399 363.491 35.3799 363.951 35.8099C364.411 36.2399 364.871 36.6499 365.331 37.0499C365.081 37.2615 364.817 37.4553 364.541 37.6299C364.255 37.8109 363.954 37.9649 363.641 38.0899C363.317 38.2222 362.982 38.3259 362.641 38.3999C362.292 38.4722 361.937 38.5091 361.581 38.5099C361.048 38.5173 360.518 38.4397 360.011 38.2799C359.593 38.1431 359.209 37.9219 358.881 37.6299C358.581 37.3523 358.349 37.0104 358.201 36.6299C358.039 36.2264 357.961 35.7944 357.971 35.3599C357.97 35.0592 358.01 34.7598 358.091 34.4699M359.651 25.2899C359.751 25.0259 359.908 24.787 360.111 24.5899C360.342 24.3779 360.614 24.2146 360.911 24.1099C361.294 23.9839 361.697 23.9263 362.101 23.9399C362.479 23.9323 362.857 23.9829 363.221 24.0899C363.504 24.1833 363.766 24.333 363.991 24.5299C364.184 24.6995 364.334 24.9118 364.431 25.1499C364.527 25.3846 364.575 25.6363 364.571 25.8899C364.573 26.1991 364.512 26.5054 364.391 26.7899C364.253 27.1074 364.056 27.3958 363.811 27.6399C363.51 27.9717 363.175 28.2701 362.811 28.5299C362.371 28.8299 361.811 29.1699 361.181 29.5299C360.901 29.1499 360.671 28.7999 360.471 28.5299C360.271 28.2599 360.101 27.9299 359.961 27.6599C359.835 27.4138 359.735 27.1558 359.661 26.8899C359.594 26.6522 359.561 26.4067 359.561 26.1599C359.562 25.8775 359.609 25.5971 359.701 25.3299M355.831 37.0399C355.952 37.4591 356.138 37.8571 356.381 38.2199C356.615 38.5713 356.902 38.8849 357.231 39.1499C357.558 39.4191 357.922 39.6412 358.311 39.8099C358.755 39.9971 359.217 40.1378 359.691 40.2299C360.215 40.3236 360.747 40.3705 361.281 40.3699C361.837 40.3737 362.393 40.3235 362.941 40.2199C363.44 40.1237 363.929 39.9798 364.401 39.7899C364.855 39.6117 365.294 39.3942 365.711 39.1399C366.121 38.8853 366.516 38.6047 366.891 38.2999C367.401 38.7099 367.841 39.0399 368.211 39.2999C368.533 39.5267 368.867 39.737 369.211 39.9299C369.45 40.0629 369.701 40.1734 369.961 40.2599C370.149 40.3162 370.344 40.3465 370.541 40.3499C370.728 40.3525 370.916 40.3357 371.101 40.2999C371.203 40.2768 371.302 40.2362 371.391 40.1799C371.445 40.1345 371.486 40.076 371.511 40.0099C371.52 39.9101 371.52 39.8097 371.511 39.7099C371.511 39.5799 371.511 39.3999 371.511 39.1799C371.526 39.017 371.526 38.8529 371.511 38.6899C371.495 38.6059 371.453 38.529 371.391 38.4699C371.328 38.4529 371.263 38.4529 371.201 38.4699H370.951C370.834 38.4619 370.719 38.4349 370.611 38.3899C370.429 38.3135 370.255 38.2197 370.091 38.1099C369.881 37.9799 369.631 37.7999 369.331 37.5899C369.031 37.3799 368.691 37.1099 368.331 36.7899C368.605 36.4293 368.846 36.0444 369.051 35.6399C369.269 35.2187 369.453 34.7806 369.601 34.3299C369.747 33.8711 369.863 33.4035 369.951 32.9299C370.031 32.4441 370.071 31.9524 370.071 31.4599V31.1299C370.074 31.0363 370.054 30.9432 370.011 30.8599C369.969 30.787 369.901 30.7331 369.821 30.7099C369.71 30.6759 369.596 30.6557 369.481 30.6499H368.981C368.801 30.6378 368.62 30.6378 368.441 30.6499C368.333 30.6546 368.227 30.6819 368.131 30.73C368.067 30.7638 368.014 30.816 367.981 30.8799C367.964 30.9523 367.964 31.0276 367.981 31.0999V31.5799C367.979 31.938 367.952 32.2956 367.901 32.6499C367.849 32.9894 367.768 33.3239 367.661 33.6499C367.561 33.9916 367.438 34.3258 367.291 34.6499C367.161 34.937 367 35.2087 366.811 35.4599C366.421 35.1099 366.031 34.7399 365.621 34.3499C365.211 33.9599 364.821 33.5799 364.441 33.1799C364.061 32.7799 363.681 32.3799 363.331 31.9899C362.981 31.5999 362.651 31.2199 362.331 30.8499C363.056 30.4694 363.757 30.0452 364.431 29.5799C364.95 29.2298 365.429 28.8241 365.861 28.3699C366.206 28 366.481 27.5695 366.671 27.0999C366.843 26.6433 366.928 26.1581 366.921 25.6699C366.929 25.1659 366.834 24.6655 366.641 24.2C366.45 23.7646 366.159 23.3807 365.791 23.0799C365.37 22.7472 364.887 22.5023 364.371 22.3599C363.719 22.1835 363.046 22.0993 362.371 22.1099C361.574 22.0886 360.779 22.2036 360.021 22.45C359.432 22.6375 358.89 22.9477 358.431 23.3599C358.033 23.7292 357.726 24.184 357.531 24.6899C357.346 25.1964 357.252 25.731 357.251 26.2699C357.253 26.5798 357.29 26.8884 357.361 27.1899C357.437 27.5359 357.555 27.8716 357.711 28.1899C357.898 28.5661 358.108 28.9302 358.341 29.2799C358.591 29.6699 358.891 30.1099 359.251 30.5899C358.667 30.9312 358.112 31.3192 357.591 31.7499C357.167 32.0963 356.793 32.5002 356.481 32.95C355.935 33.7289 355.649 34.6593 355.661 35.6099C355.654 36.0867 355.718 36.5618 355.851 37.0199" fill="#A6A8AB"/>
<path d="M474.449 12.1802H402.369C389.799 12.1802 379.609 22.3702 379.609 34.9402V34.9502C379.609 47.5202 389.799 57.7102 402.369 57.7102H474.449C487.019 57.7102 497.209 47.5202 497.209 34.9502V34.9402C497.209 22.3702 487.019 12.1802 474.449 12.1802Z" fill="#6DBD46"/>
<path d="M408.849 45.8698C408.865 46.6232 408.704 47.3697 408.379 48.0498C408.083 48.6614 407.652 49.1981 407.119 49.6198C406.571 50.0551 405.942 50.3779 405.269 50.5698C404.037 50.9234 402.739 50.9851 401.479 50.7498C401.059 50.6707 400.645 50.5638 400.239 50.4298C399.928 50.3233 399.627 50.1895 399.339 50.0298C399.154 49.9274 398.98 49.8068 398.819 49.6698C398.705 49.5396 398.629 49.3805 398.599 49.2098C398.544 48.9267 398.52 48.6382 398.529 48.3498C398.529 48.0898 398.529 47.8798 398.529 47.7098C398.544 47.5711 398.571 47.4339 398.609 47.2998C398.637 47.2108 398.689 47.1313 398.759 47.0698C398.821 47.0261 398.894 47.0018 398.969 46.9998C399.149 47.0242 399.318 47.0967 399.459 47.2098C399.717 47.3724 399.984 47.5194 400.259 47.6498C400.633 47.8303 401.021 47.9808 401.419 48.0998C401.931 48.2392 402.459 48.3065 402.989 48.2998C403.327 48.2983 403.664 48.2512 403.989 48.1598C404.274 48.0736 404.541 47.9382 404.779 47.7598C404.991 47.5922 405.159 47.3761 405.269 47.1298C405.387 46.8623 405.445 46.5722 405.439 46.2798C405.444 45.9499 405.343 45.6272 405.149 45.3598C404.935 45.0933 404.678 44.8637 404.389 44.6798C404.048 44.4652 403.69 44.2779 403.319 44.1198L402.089 43.5598C401.661 43.3697 401.246 43.1491 400.849 42.8998C400.457 42.6531 400.1 42.3536 399.789 42.0098C399.464 41.6467 399.204 41.2307 399.019 40.7798C398.815 40.2369 398.716 39.6598 398.729 39.0798C398.712 38.3896 398.856 37.7048 399.149 37.0798C399.414 36.5215 399.804 36.032 400.289 35.6498C400.787 35.2572 401.358 34.9682 401.969 34.7998C402.639 34.6082 403.333 34.514 404.029 34.5198C404.404 34.5216 404.778 34.5483 405.149 34.5998C405.541 34.6415 405.928 34.7116 406.309 34.8098C406.61 34.8904 406.901 35.0009 407.179 35.1398C407.36 35.2148 407.528 35.3159 407.679 35.4398C407.743 35.5008 407.798 35.5717 407.839 35.6498C407.871 35.7202 407.895 35.794 407.909 35.8698C407.939 35.9877 407.955 36.1084 407.959 36.2298C407.959 36.3698 407.959 36.5498 407.959 36.7598C407.959 36.9698 407.959 37.1898 407.959 37.3598C407.953 37.4948 407.933 37.6288 407.899 37.7598C407.881 37.8459 407.839 37.9253 407.779 37.9898C407.719 38.0442 407.64 38.0729 407.559 38.0698C407.407 38.043 407.264 37.9814 407.139 37.8898L406.419 37.5198C406.094 37.3778 405.76 37.2575 405.419 37.1598C405.019 37.0453 404.605 36.988 404.189 36.9898C403.878 36.9823 403.567 37.0262 403.269 37.1198C403.03 37.1892 402.809 37.3085 402.619 37.4698C402.444 37.6163 402.309 37.8058 402.229 38.0198C402.14 38.2318 402.096 38.4599 402.099 38.6898C402.09 39.0173 402.192 39.3383 402.389 39.5998C402.599 39.8709 402.857 40.1014 403.149 40.2798C403.501 40.4943 403.869 40.6815 404.249 40.8398C404.649 41.0198 405.069 41.1998 405.489 41.3998C405.917 41.598 406.334 41.8183 406.739 42.0598C407.138 42.3062 407.501 42.6057 407.819 42.9498C408.145 43.3083 408.406 43.7212 408.589 44.1698C408.792 44.7125 408.881 45.2913 408.849 45.8698Z" fill="white"/>
<path d="M420.088 49.3503C420.1 49.5467 420.1 49.7438 420.088 49.9403C420.076 50.0705 420.046 50.1984 419.998 50.3203C419.968 50.4052 419.916 50.4809 419.848 50.5403C419.79 50.5826 419.72 50.6069 419.648 50.6102H411.708C411.46 50.6176 411.217 50.532 411.028 50.3702C410.93 50.2669 410.855 50.1439 410.809 50.0094C410.762 49.8749 410.745 49.732 410.758 49.5903V35.8103C410.746 35.6701 410.764 35.5291 410.811 35.3965C410.858 35.2638 410.932 35.1424 411.028 35.0403C411.217 34.8785 411.46 34.7929 411.708 34.8002H419.598C419.666 34.8002 419.732 34.8211 419.788 34.8602C419.858 34.9137 419.91 34.9868 419.938 35.0703C419.982 35.1967 420.012 35.3274 420.028 35.4602C420.041 35.6634 420.041 35.8671 420.028 36.0703C420.04 36.2634 420.04 36.4571 420.028 36.6502C420.016 36.7805 419.986 36.9084 419.938 37.0303C419.908 37.1152 419.856 37.1909 419.788 37.2503C419.732 37.2894 419.666 37.3103 419.598 37.3103H413.958V41.1702H418.728C418.801 41.1694 418.872 41.1941 418.928 41.2402C418.998 41.2937 419.05 41.3668 419.078 41.4503C419.124 41.57 419.157 41.6939 419.178 41.8203C419.19 42.0134 419.19 42.2071 419.178 42.4002C419.191 42.5967 419.191 42.7938 419.178 42.9902C419.157 43.1166 419.124 43.2406 419.078 43.3602C419.05 43.4409 418.998 43.5108 418.928 43.5603C418.87 43.6026 418.8 43.6269 418.728 43.6303H413.958V48.0802H419.648C419.721 48.0794 419.792 48.1041 419.848 48.1502C419.918 48.2037 419.97 48.2768 419.998 48.3602C420.044 48.486 420.075 48.617 420.088 48.7503C420.101 48.95 420.101 49.1505 420.088 49.3503Z" fill="white"/>
<path d="M433.93 50.1903C433.947 50.266 433.947 50.3445 433.93 50.4202C433.875 50.4972 433.793 50.5507 433.7 50.5703C433.524 50.6191 433.343 50.646 433.16 50.6502C432.92 50.6502 432.6 50.6502 432.16 50.6502C431.72 50.6502 431.55 50.6502 431.35 50.6502C431.183 50.6482 431.017 50.6177 430.86 50.5603C430.762 50.5291 430.675 50.47 430.61 50.3902C430.56 50.312 430.52 50.228 430.49 50.1402L429.08 46.6102C428.91 46.2102 428.74 45.8602 428.58 45.5502C428.434 45.2691 428.249 45.0099 428.03 44.7803C427.838 44.5741 427.602 44.4135 427.34 44.3103C427.054 44.197 426.748 44.1426 426.44 44.1502H425.44V50.1502C425.438 50.2303 425.41 50.3075 425.36 50.3702C425.288 50.4422 425.198 50.4939 425.1 50.5202C424.94 50.5701 424.776 50.6036 424.61 50.6202C424.35 50.6382 424.09 50.6382 423.83 50.6202C423.57 50.6379 423.31 50.6379 423.05 50.6202C422.884 50.6047 422.719 50.5711 422.56 50.5202C422.462 50.4939 422.372 50.4422 422.3 50.3702C422.253 50.3066 422.229 50.2293 422.23 50.1502V35.8103C422.218 35.6701 422.236 35.5291 422.283 35.3965C422.329 35.2638 422.403 35.1424 422.5 35.0403C422.689 34.8785 422.931 34.7929 423.18 34.8002H427.27H428.27L429 34.8702C429.589 34.9424 430.164 35.0973 430.71 35.3302C431.194 35.5309 431.636 35.8229 432.01 36.1903C432.365 36.5488 432.641 36.9781 432.82 37.4503C433.017 37.9811 433.112 38.5442 433.1 39.1102C433.104 39.6007 433.036 40.0891 432.9 40.5603C432.777 41.008 432.578 41.431 432.31 41.8103C432.027 42.1591 431.689 42.4597 431.31 42.7003C430.902 42.9607 430.462 43.1659 430 43.3103C430.238 43.4216 430.463 43.5592 430.67 43.7203C430.889 43.8937 431.087 44.0917 431.26 44.3103C431.45 44.5654 431.624 44.8327 431.78 45.1102C431.956 45.4341 432.113 45.768 432.25 46.1102L433.58 49.2303C433.7 49.5403 433.79 49.7602 433.83 49.9002C433.874 49.993 433.907 50.0903 433.93 50.1903ZM429.79 39.4703C429.805 39.0041 429.679 38.5443 429.43 38.1502C429.154 37.7656 428.743 37.4982 428.28 37.4002C428.096 37.3537 427.909 37.3202 427.72 37.3002C427.434 37.2812 427.146 37.2812 426.86 37.3002H425.42V41.7803H427.05C427.456 41.7894 427.861 41.7354 428.25 41.6202C428.565 41.5231 428.858 41.3632 429.11 41.1502C429.33 40.9541 429.504 40.7116 429.62 40.4403C429.74 40.1312 429.798 39.8016 429.79 39.4703Z" fill="white"/>
<path d="M443.309 50.04C443.274 50.1611 443.22 50.2758 443.149 50.38C443.065 50.4746 442.953 50.541 442.829 50.57C442.634 50.6271 442.432 50.6574 442.229 50.66H441.229H440.399C440.199 50.6718 439.999 50.6718 439.799 50.66C439.667 50.6519 439.536 50.6284 439.409 50.59C439.317 50.5643 439.229 50.5238 439.149 50.47C439.083 50.4226 439.029 50.3611 438.989 50.29C438.951 50.2054 438.918 50.1186 438.889 50.03L434.189 36.03C434.107 35.803 434.047 35.5686 434.009 35.33C433.994 35.2617 433.997 35.1907 434.019 35.124C434.04 35.0573 434.078 34.9974 434.129 34.95C434.283 34.8466 434.464 34.7909 434.649 34.79C434.899 34.79 435.239 34.79 435.649 34.79C436.059 34.79 436.319 34.79 436.529 34.79C436.695 34.802 436.86 34.8321 437.019 34.88C437.116 34.908 437.199 34.9725 437.249 35.06C437.304 35.1547 437.348 35.2553 437.379 35.36L441.229 47.55L444.999 35.43C445.027 35.3126 445.067 35.1986 445.119 35.09C445.179 34.9983 445.267 34.9281 445.369 34.89C445.534 34.8326 445.705 34.7989 445.879 34.79C446.099 34.79 446.399 34.79 446.779 34.79C447.159 34.79 447.449 34.79 447.659 34.79C447.816 34.7981 447.965 34.8619 448.079 34.97C448.122 35.0264 448.151 35.0916 448.165 35.1609C448.179 35.2301 448.177 35.3016 448.159 35.37C448.115 35.6015 448.051 35.8289 447.969 36.05L443.309 50.04Z" fill="white"/>
<path d="M453.118 50.17C453.12 50.249 453.095 50.3264 453.048 50.39C452.972 50.462 452.88 50.5136 452.778 50.54C452.619 50.592 452.455 50.6255 452.288 50.64C451.773 50.6933 451.254 50.6933 450.738 50.64C450.569 50.6243 450.401 50.5908 450.238 50.54C450.141 50.5114 450.052 50.4599 449.978 50.39C449.929 50.3273 449.901 50.2501 449.898 50.17V35.25C449.899 35.1697 449.927 35.092 449.978 35.03C450.051 34.9511 450.145 34.8955 450.248 34.87C450.412 34.8241 450.579 34.7906 450.748 34.77C450.948 34.77 451.198 34.77 451.508 34.77C451.818 34.77 452.088 34.77 452.288 34.77C452.454 34.7897 452.618 34.8231 452.778 34.87C452.882 34.8955 452.976 34.9511 453.048 35.03C453.097 35.093 453.121 35.1708 453.118 35.25V50.17Z" fill="white"/>
<path d="M466.741 48.2099C466.752 48.3831 466.752 48.5568 466.741 48.7299C466.749 48.8531 466.749 48.9767 466.741 49.0999C466.722 49.1913 466.688 49.2791 466.641 49.3599C466.589 49.4513 466.525 49.5354 466.451 49.6099C466.291 49.7474 466.116 49.8681 465.931 49.9699C465.631 50.1386 465.317 50.2792 464.991 50.3899C464.578 50.5389 464.153 50.6527 463.721 50.7299C463.209 50.8212 462.691 50.8647 462.171 50.8599C461.172 50.8718 460.179 50.7024 459.241 50.3599C458.395 50.0439 457.634 49.5335 457.021 48.8699C456.381 48.15 455.904 47.3008 455.621 46.3799C455.273 45.2569 455.108 44.0853 455.131 42.9099C455.111 41.6982 455.294 40.4916 455.671 39.3399C455.989 38.3713 456.499 37.4768 457.171 36.7099C457.812 36.0079 458.601 35.4579 459.481 35.0999C460.436 34.7242 461.455 34.5374 462.481 34.5499C462.907 34.55 463.332 34.5868 463.751 34.6599C464.134 34.7292 464.512 34.8262 464.881 34.9499C465.207 35.0566 465.521 35.1939 465.821 35.3599C466.031 35.4682 466.225 35.6026 466.401 35.7599C466.488 35.838 466.562 35.9291 466.621 36.0299C466.669 36.1171 466.703 36.2117 466.721 36.3099C466.749 36.442 466.769 36.5755 466.781 36.7099C466.781 36.8699 466.781 37.0599 466.781 37.2899C466.792 37.4964 466.792 37.7034 466.781 37.9099C466.768 38.0498 466.738 38.1876 466.691 38.3199C466.666 38.4108 466.618 38.4935 466.551 38.5599C466.496 38.6076 466.424 38.6327 466.351 38.6299C466.18 38.6076 466.02 38.5344 465.891 38.4199C465.351 37.9942 464.747 37.6567 464.101 37.4199C463.626 37.2702 463.129 37.1993 462.631 37.2099C462.047 37.199 461.47 37.333 460.951 37.5999C460.452 37.8607 460.021 38.2338 459.691 38.6899C459.331 39.2159 459.067 39.8016 458.911 40.4199C458.544 41.9617 458.544 43.5681 458.911 45.1099C459.074 45.7175 459.352 46.288 459.731 46.7899C460.071 47.2215 460.51 47.5646 461.011 47.7899C461.547 48.008 462.122 48.1168 462.701 48.1099C463.202 48.1177 463.7 48.0503 464.181 47.9099C464.55 47.7902 464.908 47.6397 465.251 47.4599C465.502 47.3268 465.746 47.1799 465.981 47.0199C466.11 46.9154 466.266 46.8495 466.431 46.8299C466.498 46.824 466.565 46.8417 466.621 46.8799C466.683 46.9278 466.729 46.9944 466.751 47.0699C466.785 47.2045 466.809 47.3416 466.821 47.4799C466.731 47.6899 466.741 47.9199 466.741 48.2099Z" fill="white"/>
<path d="M477.961 49.3503C477.972 49.5467 477.972 49.7438 477.961 49.9403C477.948 50.0705 477.918 50.1984 477.87 50.3203C477.833 50.4039 477.779 50.4788 477.711 50.5403C477.652 50.5826 477.583 50.6069 477.511 50.6102H469.581C469.445 50.6263 469.308 50.6115 469.18 50.567C469.051 50.5224 468.934 50.4492 468.838 50.3529C468.742 50.2567 468.668 50.1398 468.624 50.0112C468.579 49.8825 468.564 49.7454 468.581 49.6102V35.8103C468.57 35.6694 468.59 35.528 468.638 35.3953C468.686 35.2626 468.762 35.1416 468.86 35.0403C469.049 34.8785 469.292 34.7929 469.54 34.8002H477.42C477.492 34.7988 477.562 34.8198 477.62 34.8602C477.687 34.9147 477.736 34.9878 477.761 35.0703C477.813 35.1947 477.846 35.3261 477.86 35.4602C477.873 35.6634 477.873 35.8671 477.86 36.0703C477.872 36.2634 477.872 36.4571 477.86 36.6502C477.85 36.7819 477.817 36.9107 477.761 37.0303C477.733 37.1143 477.685 37.19 477.62 37.2503C477.562 37.2907 477.492 37.3117 477.42 37.3103H471.78V41.1702H476.561C476.633 41.1694 476.704 41.1941 476.761 41.2402C476.83 41.2937 476.883 41.3668 476.91 41.4503C476.957 41.569 476.987 41.6935 477.001 41.8203C477.012 42.0134 477.012 42.2071 477.001 42.4002C477.013 42.5967 477.013 42.7938 477.001 42.9902C476.987 43.117 476.957 43.2415 476.91 43.3602C476.883 43.4409 476.83 43.5108 476.761 43.5603C476.702 43.6026 476.633 43.6269 476.561 43.6303H471.78V48.0802H477.47C477.543 48.0794 477.614 48.1041 477.67 48.1502C477.741 48.2056 477.796 48.2779 477.831 48.3602C477.877 48.486 477.907 48.617 477.92 48.7503C477.947 48.9492 477.96 49.1496 477.961 49.3503Z" fill="white"/>
<path d="M424.588 19.06C424.58 18.9604 424.556 18.8626 424.518 18.77C424.498 18.7123 424.464 18.6607 424.418 18.62C424.378 18.5889 424.329 18.5714 424.278 18.57H419.098C418.923 18.5663 418.752 18.6267 418.618 18.74C418.55 18.8115 418.498 18.8966 418.465 18.9897C418.433 19.0827 418.42 19.1817 418.428 19.28V29.28C418.429 29.3387 418.45 29.3953 418.488 29.44C418.538 29.491 418.6 29.5288 418.668 29.55C418.781 29.5888 418.899 29.6124 419.018 29.62C419.377 29.6599 419.739 29.6599 420.098 29.62C420.217 29.6112 420.335 29.5877 420.448 29.55C420.516 29.5288 420.578 29.491 420.628 29.44C420.643 29.3876 420.643 29.3323 420.628 29.28V25.17H424.008C424.054 25.1845 424.103 25.1845 424.148 25.17C424.192 25.1236 424.226 25.0693 424.248 25.01C424.285 24.9205 424.309 24.8262 424.318 24.73C424.318 24.61 424.318 24.47 424.318 24.3C424.318 24.13 424.318 23.99 424.318 23.88C424.31 23.7834 424.287 23.6888 424.248 23.6C424.226 23.5465 424.192 23.4986 424.148 23.46C424.103 23.4454 424.054 23.4454 424.008 23.46H420.628V20.46H424.308C424.353 20.4778 424.403 20.4778 424.448 20.46C424.494 20.4193 424.528 20.3676 424.548 20.31C424.587 20.2211 424.61 20.1265 424.618 20.03C424.63 19.8869 424.63 19.7431 424.618 19.6C424.629 19.4569 424.629 19.3131 424.618 19.17" fill="white"/>
<path d="M436.308 23.9499C436.324 23.1113 436.213 22.2752 435.978 21.4699C435.782 20.8213 435.44 20.2262 434.978 19.7299C434.536 19.2693 433.986 18.9257 433.378 18.7299C432.665 18.498 431.918 18.3865 431.168 18.3999C430.383 18.3829 429.602 18.5187 428.868 18.7999C428.231 19.0449 427.662 19.4393 427.208 19.9499C426.751 20.4757 426.41 21.0926 426.208 21.7599C425.976 22.5418 425.861 23.3541 425.868 24.1698C425.854 25.0208 425.962 25.8694 426.188 26.6899C426.378 27.3443 426.721 27.9442 427.188 28.4399C427.632 28.8947 428.177 29.2375 428.778 29.4399C429.505 29.673 430.265 29.7845 431.028 29.7699C431.809 29.785 432.586 29.6528 433.318 29.3799C433.957 29.1321 434.529 28.7383 434.988 28.2299C435.445 27.6958 435.785 27.0726 435.988 26.3999C436.227 25.6021 436.342 24.7724 436.328 23.9399M433.978 24.0599C433.979 24.5632 433.932 25.0654 433.838 25.5599C433.748 26.0082 433.568 26.4335 433.308 26.8099C433.083 27.1577 432.773 27.4431 432.408 27.6398C431.987 27.8622 431.514 27.9692 431.038 27.9499C430.567 27.9663 430.098 27.8739 429.668 27.6799C429.309 27.5093 429.007 27.2384 428.798 26.8999C428.566 26.5238 428.41 26.1059 428.338 25.6698C428.242 25.1353 428.195 24.593 428.198 24.0498C428.197 23.5565 428.244 23.0642 428.338 22.5798C428.425 22.151 428.587 21.7412 428.818 21.3699C429.044 21.022 429.353 20.7366 429.718 20.5399C430.144 20.3184 430.619 20.2116 431.098 20.2299C431.566 20.2153 432.031 20.3077 432.458 20.4999C432.812 20.6827 433.112 20.955 433.328 21.2899C433.56 21.6588 433.717 22.07 433.788 22.4999C433.884 23.021 433.931 23.55 433.928 24.0798" fill="white"/>
<path d="M447.991 23.9501C448.007 23.1116 447.896 22.2754 447.661 21.4701C447.465 20.8215 447.123 20.2264 446.661 19.7301C446.219 19.2696 445.669 18.926 445.061 18.7301C444.348 18.499 443.601 18.3875 442.851 18.4001C442.066 18.3816 441.284 18.5175 440.551 18.8001C439.911 19.0452 439.339 19.4394 438.881 19.9501C438.423 20.4758 438.083 21.0928 437.881 21.7601C437.644 22.541 437.529 23.354 437.541 24.1701C437.522 25.0213 437.63 25.8706 437.861 26.6901C438.051 27.3446 438.394 27.9445 438.861 28.4401C439.301 28.8986 439.847 29.242 440.451 29.4401C441.175 29.6725 441.931 29.784 442.691 29.7701C443.476 29.7854 444.256 29.6531 444.991 29.3801C445.627 29.1323 446.196 28.7384 446.651 28.2301C447.111 27.6982 447.452 27.0743 447.651 26.4001C447.885 25.6013 448 24.7724 447.991 23.9401M445.641 24.0601C445.642 24.5634 445.595 25.0656 445.501 25.5601C445.415 25.9952 445.253 26.4116 445.021 26.7901C444.796 27.1379 444.486 27.4234 444.121 27.6201C443.696 27.8416 443.22 27.9484 442.741 27.9301C442.27 27.9455 441.801 27.8531 441.371 27.6601C441.016 27.4841 440.715 27.2144 440.501 26.8801C440.273 26.502 440.117 26.085 440.041 25.6501C439.948 25.1152 439.905 24.573 439.911 24.0301C439.905 23.5365 439.952 23.0437 440.051 22.5601C440.128 22.1287 440.292 21.7172 440.531 21.3501C440.753 21.0027 441.059 20.7172 441.421 20.5201C441.846 20.2987 442.322 20.1918 442.801 20.2101C443.269 20.1927 443.735 20.2852 444.161 20.4801C444.52 20.6599 444.824 20.9327 445.041 21.2701C445.273 21.639 445.43 22.0503 445.501 22.4801C445.597 23.0013 445.644 23.5302 445.641 24.0601Z" fill="white"/>
<path d="M458.398 23.9202C458.409 23.1347 458.284 22.3532 458.028 21.6102C457.806 20.9783 457.439 20.4066 456.958 19.9402C456.464 19.482 455.872 19.1403 455.228 18.9402C454.423 18.69 453.582 18.5718 452.738 18.5902H449.908C449.816 18.5853 449.723 18.6007 449.637 18.6352C449.55 18.6697 449.473 18.7225 449.409 18.7901C449.345 18.8577 449.297 18.9383 449.267 19.0264C449.238 19.1145 449.228 19.2079 449.238 19.3002V28.9002C449.228 28.9926 449.238 29.086 449.267 29.1741C449.297 29.2622 449.345 29.3428 449.409 29.4104C449.473 29.478 449.55 29.5308 449.637 29.5653C449.723 29.5999 449.816 29.6152 449.908 29.6102H452.538C453.389 29.6256 454.238 29.5178 455.058 29.2903C455.727 29.0998 456.343 28.7576 456.858 28.2903C457.379 27.8075 457.771 27.2025 457.998 26.5302C458.28 25.6965 458.416 24.8202 458.398 23.9402M456.078 24.0202C456.088 24.5807 456.017 25.1397 455.868 25.6802C455.749 26.1216 455.534 26.5312 455.238 26.8802C454.967 27.1969 454.625 27.4438 454.238 27.6003C453.74 27.7726 453.215 27.8539 452.688 27.8402H451.528V20.3503H452.658C453.224 20.3298 453.788 20.4216 454.318 20.6202C454.704 20.8009 455.045 21.0637 455.318 21.3902C455.597 21.7334 455.798 22.1324 455.908 22.5602C456.032 23.0369 456.093 23.5278 456.088 24.0202" fill="white"/>
<path d="M0 85.5599H10.22V83.7399H2.44V80.5199H9.78V78.6999H2.44V75.8099H10.09V73.9799H0V85.5599ZM19.22 85.5599H28.72V83.6399H21.66V73.9399H19.22V85.5599ZM52.57 75.8099H55.87C57.24 75.8099 59.63 76.0299 59.63 79.8099C59.63 83.2099 57.76 83.8099 56 83.8099H52.57V75.8099ZM50.13 85.5999H56.98C60.98 85.5999 62.07 82.4199 62.07 79.9099C62.07 76.5899 60.95 73.9799 56.4 73.9799H50.13V85.5999ZM71.13 85.5999H73.57V73.9399H71.13V85.5999ZM86.34 80.8999L88.34 75.9999L90.34 80.8999H86.34ZM81.77 85.5999H84.41L85.61 82.7199H91.08L92.3 85.5999H95.02L89.84 73.9799H86.95L81.77 85.5999ZM103.22 85.5999H105.66V81.0099H109.81C111.61 81.0099 111.81 82.1799 111.81 83.8499C111.774 84.4476 111.874 85.0456 112.1 85.5999H114.74C114.359 84.8278 114.19 83.9686 114.25 83.1099C114.25 81.4699 113.94 80.2699 112.56 79.9699C113.149 79.7885 113.66 79.4131 114.008 78.9047C114.357 78.3963 114.523 77.7848 114.48 77.1699C114.48 75.3599 113.48 74.0099 110.56 74.0099H103.2L103.22 85.5999ZM105.66 79.1899V75.8099H109.88C111.16 75.8099 111.96 76.2799 111.96 77.4799C111.96 78.6799 111.23 79.1899 109.88 79.1899H105.66ZM123.66 85.5999H126.1V73.9399H123.66V85.5999ZM141.82 85.9299C146.74 85.9299 148.66 83.0599 148.66 79.7899C148.66 76.5199 146.74 73.6599 141.82 73.6599C136.9 73.6599 134.99 76.5199 134.99 79.7899C134.99 83.0599 136.91 85.9299 141.82 85.9299ZM141.82 84.1099C140.965 84.1139 140.128 83.8639 139.415 83.3916C138.701 82.9193 138.145 82.246 137.815 81.457C137.485 80.668 137.396 79.7988 137.561 78.9594C137.725 78.1201 138.135 77.3485 138.738 76.7423C139.342 76.1362 140.111 75.7228 140.95 75.5544C141.788 75.3861 142.658 75.4705 143.449 75.7969C144.239 76.1232 144.915 76.6769 145.391 77.3878C145.866 78.0986 146.12 78.9347 146.12 79.7899C146.168 80.3677 146.09 80.949 145.891 81.4937C145.693 82.0383 145.378 82.5332 144.969 82.9441C144.56 83.355 144.066 83.6721 143.523 83.8734C142.979 84.0747 142.398 84.1554 141.82 84.1099ZM172.87 75.8099H176.18C177.55 75.8099 179.94 76.0299 179.94 79.8099C179.94 83.2099 178.07 83.8099 176.31 83.8099H172.87V75.8099ZM170.44 85.5999H177.31C181.26 85.5999 182.4 82.4199 182.4 79.9099C182.4 76.5899 181.28 73.9799 176.72 73.9799H170.46L170.44 85.5999ZM191.44 85.5999H201.66V83.7799H193.88V80.5599H201.31V78.7399H193.97V75.8099H201.62V73.9799H191.48L191.44 85.5999ZM223.56 85.5999H233.06V83.6799H225.99V73.9799H223.56V85.5999ZM244.81 80.8999L246.81 75.9999L248.81 80.8999H244.81ZM240.24 85.5999H242.88L244.08 82.7199H249.55L250.77 85.5999H253.49L248.31 73.9399H245.42L240.24 85.5999ZM277.82 80.8999L279.82 75.9999L281.82 80.8999H277.82ZM273.25 85.5999H275.88L277.09 82.7199H282.56L283.78 85.5999H286.49L281.32 73.9799H278.42L273.25 85.5999ZM294.7 85.5999H304.2V83.6799H297.14V73.9799H294.7V85.5999ZM312.7 85.5999H315.14V73.9399H312.7V85.5999ZM324.7 85.5999H327L326.9 75.9999L331.17 85.5999H333.31L337.61 75.9999L337.51 85.5999H339.8V73.9399H336.33L332.33 82.9399L328.26 73.9399H324.74L324.7 85.5999ZM349.35 85.5999H359.56V83.7799H351.81V80.5599H359.16V78.7399H351.81V75.8099H359.46V73.9799H349.38L349.35 85.5999ZM368.57 85.5999H370.91V76.8099L377.91 85.5299H380.66V73.9399H378.31V82.6699L371.38 73.9399H368.59L368.57 85.5999ZM393.37 85.5999H395.81V75.8099H400.17V73.9799H389.04V75.8099H393.4L393.37 85.5999ZM411.16 80.8999L413.16 75.9999L415.16 80.8999H411.16ZM406.59 85.5999H409.22L410.43 82.7199H415.9L417.12 85.5999H419.83L414.66 73.9799H411.76L406.59 85.5999ZM440.31 78.2399C440.05 75.7299 437.96 73.6199 433.96 73.6199C429.39 73.6199 427.47 76.4799 427.47 79.7499C427.418 80.5749 427.543 81.4016 427.837 82.1742C428.131 82.9468 428.587 83.6476 429.174 84.2293C429.762 84.811 430.467 85.2602 431.242 85.5466C432.018 85.833 432.845 85.9501 433.67 85.8899C438.45 85.8899 439.97 83.4299 440.31 81.1199H437.67C437.572 81.9796 437.143 82.7675 436.476 83.3178C435.808 83.868 434.953 84.1377 434.09 84.0699C433.546 84.0943 433.003 84.0047 432.496 83.807C431.988 83.6093 431.528 83.3078 431.144 82.9218C430.76 82.5359 430.46 82.0739 430.265 81.5656C430.07 81.0573 429.983 80.5138 430.01 79.9699C430.01 76.9699 431.68 75.4399 433.93 75.4399C435.93 75.4399 437.43 76.4399 437.67 78.2399H440.31ZM449.44 85.5599H451.88V73.9399H449.44V85.5599ZM466.21 73.2099H468.14L470.42 70.8999H467.65L466.21 73.2099ZM467.56 85.8899C472.47 85.8899 474.39 83.0199 474.39 79.7499C474.39 76.4799 472.47 73.6199 467.56 73.6199C462.65 73.6199 460.72 76.4799 460.72 79.7499C460.72 83.0199 462.64 85.8899 467.56 85.8899ZM467.56 84.0699C466.704 84.0759 465.866 83.8275 465.152 83.3565C464.437 82.8854 463.879 82.2128 463.547 81.424C463.216 80.6351 463.126 79.7656 463.289 78.9257C463.453 78.0857 463.862 77.3131 464.465 76.706C465.068 76.0988 465.837 75.6844 466.676 75.5152C467.515 75.3461 468.385 75.4299 469.176 75.756C469.967 76.082 470.644 76.6357 471.12 77.3467C471.596 78.0578 471.85 78.8942 471.85 79.7499C471.898 80.3268 471.82 80.9072 471.622 81.451C471.424 81.9949 471.11 82.4893 470.702 82.9C470.294 83.3108 469.802 83.6281 469.26 83.83C468.717 84.032 468.137 84.1139 467.56 84.0699ZM483.31 85.5599H485.65V76.8099L492.65 85.5299H495.4V73.9399H493.06V82.6699L486.15 73.9399H483.31V85.5599Z" fill="#9D9D9C"/>
</g>
<defs>
<clipPath id="clip0_2523_1955">
<rect width="497.22" height="85.89" fill="white"/>
</clipPath>
</defs>
</svg>
