<?xml version="1.0" encoding="utf-8"?>
<!-- Generator: Adobe Illustrator 25.2.1, SVG Export Plug-In . SVG Version: 6.00 Build 0)  -->
<svg version="1.1" id="Laag_1" xmlns="http://www.w3.org/2000/svg" xmlns:xlink="http://www.w3.org/1999/xlink" x="0px" y="0px"
	 viewBox="0 0 258 116" style="enable-background:new 0 0 258 116;" xml:space="preserve">
<style type="text/css">
	.st0{fill:#218E83;}
	.st1{fill:#FFAC27;}
</style>
<g>
	<g>
		<g>
			<g>
				<g>
					<g>
						<g>
							<path class="st0" d="M13.8,59.9c0-22.8,18.3-41.5,41-42v-7.7c-27,0.5-48.7,22.6-48.7,49.7c0,26.9,21.7,49,48.7,49.6v-7.7
								C32.1,101.3,13.8,82.8,13.8,59.9"/>
						</g>
					</g>
					<g>
						<g>
							<path class="st1" d="M25.3,60.1c0,16.5,13.1,30,29.5,30.7V29.4C38.4,30.1,25.3,43.6,25.3,60.1"/>
						</g>
					</g>
					<g>
						<g>
							<polygon class="st0" points="62.7,11.3 97,11.3 97,18.8 75.2,18.8 75.2,28.2 95.5,28.2 95.5,35.7 75.2,35.7 75.2,52.2 
								62.7,52.2 							"/>
						</g>
					</g>
					<g>
						<g>
							<path class="st0" d="M104.3,32.3c0-4.3,0-7.2-0.4-9.7h10.8l0.5,5.6h0.4c2.2-4.3,7-6.1,11-6.1c1.1,0,1.8,0,2.7,0.2v8.6
								c-1.1-0.2-2.2-0.2-3.6-0.2c-4.7,0-7.9,1.8-8.6,4.7c-0.2,0.5-0.2,1.3-0.2,2v14.9h-12.8L104.3,32.3z"/>
						</g>
					</g>
					<g>
						<g>
							<path class="st0" d="M145.1,40.2c0.4,4,5.6,5.7,11.5,5.7c4.3,0,7.9-0.4,11.3-1.3l1.6,6.3c-4.1,1.3-9.3,1.8-14.7,1.8
								c-13.8,0-21.7-5.7-21.7-15.1c0-7.5,6.5-15.8,20.7-15.8c13.1,0,18.1,7.5,18.1,14.7c0,1.6-0.2,3.1-0.4,3.8L145.1,40.2z
								 M160,33.9c0-2.2-1.3-5.9-7-5.9c-5.4,0-7.5,3.6-7.9,5.9H160z"/>
						</g>
					</g>
					<g>
						<g>
							<path class="st0" d="M179.2,44.1c2.3,1.1,7.2,2.2,11,2.2s5.4-0.9,5.4-2.3c0-1.6-1.3-2.3-5.9-3.4c-8.4-2-11.7-5.4-11.7-8.8
								c0-5.6,6.5-9.7,16.5-9.7c4.7,0,9,0.9,11.5,1.8l-2.2,6.3c-1.8-0.7-5.4-1.6-8.8-1.6c-3.1,0-4.9,0.9-4.9,2.3s1.6,2.2,6.6,3.4
								c7.7,1.8,11,4.9,11,9.2c0,5.6-5.9,9.7-17.6,9.7c-5.4,0-10.1-0.9-13.1-2.2L179.2,44.1z"/>
						</g>
					</g>
					<g>
						<g>
							<path class="st0" d="M215.5,9.1h12.8v17.1h0.2c1.3-1.3,3.1-2.3,5-3.1c2-0.7,4.3-1.1,6.6-1.1c8.1,0,14.2,4.1,14.2,13.1v17.2
								h-12.8V36.1c0-4-1.8-6.5-6.6-6.5c-3.4,0-5.4,1.6-6.3,3.2c-0.4,0.5-0.4,1.3-0.4,2v17.6h-12.8V9.1H215.5z"/>
						</g>
					</g>
					<g>
						<g>
							<path class="st0" d="M62.5,66.6c4-0.5,9.3-0.9,17.2-0.9s13.5,1.1,17.2,3.4c3.6,2,5.9,5.4,5.9,9.3c0,4.1-1.8,7.5-5,9.7
								C93.5,91,87,92.4,79.5,92.4c-1.6,0-3.2,0-4.3-0.2V107H62.7V66.6H62.5z M75.2,85.3c1.1,0.2,2.3,0.2,4.3,0.2
								c6.8,0,11-2.5,11-6.6c0-3.8-3.6-5.9-9.9-5.9c-2.5,0-4.3,0.2-5.2,0.4v12L75.2,85.3L75.2,85.3z"/>
						</g>
					</g>
					<g>
						<g>
							<rect x="110.4" y="63.9" class="st0" width="12.8" height="43.1"/>
						</g>
					</g>
					<g>
						<g>
							<path class="st0" d="M167.2,99.8c0,2.9,0.2,5.6,0.7,7.2h-11.5l-0.7-3.1h-0.4c-2.7,2.3-6.8,3.6-11.7,3.6
								c-8.3,0-13.1-4.3-13.1-9.2c0-7.7,9.5-11.3,23.9-11.3v-0.4c0-1.6-1.3-3.8-7.4-3.8c-4.1,0-8.6,1.1-11.3,2.2l-2.3-5.9
								c2.9-1.1,8.4-2.7,15.8-2.7c13.7,0,17.8,5.7,17.8,12.8v10.6C167,99.8,167.2,99.8,167.2,99.8z M155,93
								c-6.6,0-11.9,1.1-11.9,4.7c0,2.3,2.2,3.6,5,3.6c3.1,0,5.7-1.4,6.6-3.4c0.2-0.5,0.2-1.1,0.2-1.6L155,93L155,93z"/>
						</g>
					</g>
					<g>
						<g>
							<path class="st0" d="M174,101.6l12.8-11.7c2.3-2,4.1-3.4,6.5-5.2v-0.2h-18v-7.4h33.4v5.6l-12.2,11.1
								c-2.3,1.8-4.3,3.8-6.6,5.4v0.2h19.6v7.4H174V101.6L174,101.6z"/>
						</g>
					</g>
					<g>
						<g>
							<path class="st0" d="M250.2,99.8c0,2.9,0.2,5.6,0.7,7.2h-11.5l-0.7-3.1h-0.2c-2.7,2.3-6.8,3.6-11.7,3.6
								c-8.3,0-13.1-4.3-13.1-9.2c0-7.7,9.5-11.3,23.9-11.3v-0.4c0-1.6-1.3-3.8-7.4-3.8c-4.1,0-8.6,1.1-11.3,2.2l-2.3-5.9
								c2.9-1.1,8.4-2.7,15.8-2.7c13.7,0,17.8,5.7,17.8,12.8V99.8L250.2,99.8z M238,93c-6.6,0-11.9,1.1-11.9,4.7
								c0,2.3,2.2,3.6,5,3.6c3.1,0,5.7-1.4,6.6-3.4c0.2-0.5,0.2-1.1,0.2-1.6L238,93L238,93z"/>
						</g>
					</g>
					<g>
						<g>
							<rect x="47.9" y="58.7" class="st1" width="208.4" height="2.7"/>
						</g>
					</g>
				</g>
			</g>
		</g>
	</g>
</g>
</svg>
