<svg xmlns="http://www.w3.org/2000/svg" viewBox="0 0 366 54">
  <g>
    <polygon fill="#E30613" points="162.9,12.1 182.7,12.1 182.7,52.4 162.9,52.4 162.9,12.1  "></polygon>
    <polygon fill="#E30613" points="182.7,1.2 182.7,9.4 162.9,9.4 162.9,1.2 182.7,1.2   "></polygon>
    <path fill="#E30613" d="M186.1,12.1c2,0,3.4,0,4.8,0V1.2h20.4v10.9h10.2c0,4.1,0,6.8,0,9.5h-10.2l0.1,17.6
      c-0.1,2.2,0.6,4.2,3.9,4.2h6.3v8.9c-15,0-27.9,2-30.5-9c-0.2-7.4-0.2-14.9-0.2-21.7c-1.4,0-3.4,0-4.8,0
      C186.1,17.6,186.1,15.5,186.1,12.1L186.1,12.1z"></path>
    <path fill="#E30613" d="M246.1,12.1v2c3.3-2,7.2-2.9,11.5-2.5c0,5,0.1,8.6,0.1,15.1c-1.4-3.1-4.2-5.5-6.5-5.4c-5,0.3-5,4.6-5,4.6
      c0,8.9,0,17.3,0,26.4H225V12.1H246.1L246.1,12.1z"></path>
    <path fill="#E30613" d="M19.1,38.6c0.1,1.8,1.1,3.5,2.7,4.5c1.8,0.8,4.4,0.5,6.2,0.1c1.8-1,2.7-2.6,1.8-4.2c-1.8-3.1-6.3-1.6-9.5-2
      c-7.6,0.6-15.1-0.7-18.8-7.7c-1.4-3.1-1.6-7.9,0.1-11.1c4.8-8.5,14.2-7.8,24.1-7.7c10.4,0.1,20.5-0.5,23.9,10.3
      c0.7,1.4,0.9,3.1,0.9,4.8H30.7c-0.1-1.8-0.5-3.6-2.4-4.4c-2.1-0.8-5.6-1.2-7.5,0.3c-1.2,1.2-1.2,2.7-0.7,4.1c1.4,1.9,3.7,2,5.8,2
      c10.2,0,17.7-1.4,22.4,5c2.1,2.9,3.1,7.4,1.8,11.2c-1.5,2.9-3,5.6-7.2,7.5c-5.9,2.1-10.8,2.2-19.3,2C14.3,53.2,6.2,52.3,2,45.6
      c-1.2-2-2.2-4.5-2-7H19.1L19.1,38.6z"></path>
    <path fill="#E30613" d="M287.1,0c4.9,0.1,15,0,15,0l-10.2,8.9c0,0-7.2,0.1-11.3,0L287.1,0L287.1,0z"></path>
    <path fill="#E30613" d="M314.3,12.2h19.8v2c6.7-3.6,17-2.7,24-1c8.7,3.2,7.4,12.5,7.4,20.8v18.3c0,0-19.6,0-19.8,0V26.5
      c0-2-1.6-3.5-3.5-4.4c-4-1.8-8.1,1.6-8.1,4.4v25.9h-19.8C314.3,52.4,314.3,12.2,314.3,12.2L314.3,12.2z"></path>
    <path fill="#E30613" d="M108.4,12.1h19.8v2c6.7-3.6,17-2.7,24-1c8.7,3.2,7.4,12.5,7.4,20.8v18.3c0,0-19.6,0-19.8,0V26.4
      c0-2-1.6-3.5-3.5-4.4c-4-1.8-8.1,1.6-8.1,4.4v25.9h-19.8C108.4,52.4,108.4,12.1,108.4,12.1L108.4,12.1z"></path>
    <path fill-rule="evenodd" clip-rule="evenodd" fill="#E30613" d="M79.1,21.8c4.1,0,5.5,2.7,5.5,10.4c0,7.4-1.4,10.8-5.5,10.8
      c-4.8,0-6.1-3.4-6.1-10.9C73,24.5,74.3,21.8,79.1,21.8L79.1,21.8z M63.1,14.2c7.4-4.3,18.3-3.7,26.7-2.3
      c6.9,1.4,12.8,7.6,14.6,14.2c1.7,8.2-0.1,17.9-6.9,22.9c-5.8,4.8-14.7,4.3-22.1,4.2c-8.5,0.1-17-4-20.1-12.3
      C52.7,31.8,53.1,19.3,63.1,14.2L63.1,14.2z"></path>
    <path fill-rule="evenodd" clip-rule="evenodd" fill="#E30613" d="M285.7,21.8c4.1,0,5.5,2.7,5.5,10.4c0,7.4-1.4,10.8-5.5,10.8
      c-4.8,0-6.1-3.4-6.1-10.9C279.6,24.5,280.9,21.8,285.7,21.8L285.7,21.8z M269.7,14.2c7.4-4.3,18.3-3.7,26.7-2.3
      c6.9,1.4,12.8,7.6,14.6,14.2c1.7,8.2-0.1,17.9-6.9,22.9c-5.8,4.8-14.7,4.3-22.1,4.2c-8.5,0.1-17-4-20.1-12.3
      C259.3,31.8,259.7,19.3,269.7,14.2L269.7,14.2z"></path>
  </g>
</svg>
