<svg width="250" height="187" viewBox="0 0 250 187" fill="none" xmlns="http://www.w3.org/2000/svg">
<path d="M249.89 79.7203V72.5303C246.33 71.3603 242.53 70.7103 238.58 70.7103C234.58 70.7103 230.73 71.3803 227.13 72.5803V79.8103C230.65 78.3103 234.51 77.4503 238.58 77.4503C242.58 77.4503 246.4 78.2603 249.89 79.7203ZM249.89 89.9403V85.6503C246.51 83.8503 242.66 82.8203 238.58 82.8203C234.43 82.8203 230.54 83.8803 227.13 85.7303V90.0203C230.4 87.8003 234.34 86.5003 238.58 86.5003C242.76 86.5103 246.65 87.7803 249.89 89.9403ZM238.58 67.6303C234.6 67.6303 230.76 68.2303 227.13 69.3403V58.0303C227.13 54.1703 226.34 51.3303 224.77 49.5103C223.2 47.6903 220.53 46.7803 216.76 46.7803C212.09 46.7803 208.79 48.2603 206.86 51.2203V103.48H184.16V0.0302734H206.86V38.4203C211.71 32.3103 217.9 29.2603 225.45 29.2603C233.48 29.2603 239.55 31.6403 243.63 36.4003C247.72 41.1603 249.8 48.1903 249.89 57.4803V69.2903C246.3 68.2203 242.51 67.6303 238.58 67.6303ZM149.94 87.3303C153.13 87.3303 155.59 86.4703 157.35 84.7403C159.1 83.0103 159.95 80.6003 159.91 77.5003H181.19C181.19 85.4903 178.33 92.0503 172.6 97.1603C166.88 102.28 159.5 104.84 150.48 104.84C139.88 104.84 131.53 101.52 125.42 94.8703C119.31 88.2203 116.26 79.0203 116.26 67.2603V66.3203C116.26 58.9603 117.62 52.4603 120.34 46.8203C123.06 41.1903 126.97 36.8503 132.09 33.8203C137.21 30.7903 143.27 29.2703 150.27 29.2703C159.74 29.2703 167.26 31.9003 172.83 37.1503C178.4 42.4003 181.18 49.5203 181.18 58.5003H159.9C159.9 54.7303 158.98 51.8303 157.14 49.8103C155.3 47.7903 152.83 46.7803 149.73 46.7803C143.85 46.7803 140.41 50.5303 139.43 58.0303C139.11 60.4103 138.96 63.6903 138.96 67.8603C138.96 75.1803 139.83 80.2503 141.59 83.0803C143.34 85.9103 146.12 87.3303 149.94 87.3303ZM80.08 46.7803C73.43 46.7803 69.48 51.1803 68.23 59.9803H91.13V58.2303C91.22 54.5903 90.3 51.7803 88.37 49.7803C86.43 47.7803 83.67 46.7803 80.08 46.7803ZM82.64 104.84C71.46 104.84 62.41 101.51 55.5 94.8403C48.58 88.1703 45.13 79.5003 45.13 68.8103V66.9303C45.13 59.4803 46.51 52.9003 49.27 47.2003C52.03 41.5003 56.06 37.0903 61.36 33.9703C66.66 30.8503 72.95 29.2903 80.22 29.2903C90.46 29.2903 98.54 32.4703 104.46 38.8203C110.39 45.1703 113.35 54.0303 113.35 65.3903V74.2103H68.23C69.04 78.3003 70.81 81.5103 73.55 83.8403C76.29 86.1803 79.83 87.3403 84.19 87.3403C91.37 87.3403 96.99 84.8303 101.03 79.8003L111.4 92.0603C108.57 95.9603 104.56 99.0703 99.38 101.39C94.19 103.68 88.61 104.84 82.64 104.84ZM31.99 12.5103V30.6303H43.98V46.3803H31.99V79.7203C31.99 82.4603 32.49 84.3703 33.47 85.4403C34.46 86.5203 36.41 87.0603 39.33 87.0603C41.58 87.0603 43.46 86.9303 44.99 86.6603V102.89C40.9 104.19 36.64 104.84 32.19 104.84C24.38 104.84 18.61 103 14.88 99.3203C11.15 95.6403 9.29 90.0503 9.29 82.5503V46.3803H0V30.6203H9.29V12.5003H31.99V12.5103Z" fill="#001C48"/>
<path d="M249.77 106.94C249.77 100.76 244.75 95.7402 238.57 95.7402C232.39 95.7402 227.37 100.76 227.37 106.94C227.37 113.11 232.39 118.14 238.57 118.14C244.75 118.13 249.77 113.11 249.77 106.94ZM250 128.17V123.87C246.74 126.08 242.81 127.37 238.58 127.37C234.33 127.37 230.39 126.07 227.11 123.84V128.14C230.52 130 234.42 131.06 238.58 131.06C242.71 131.05 246.6 130 250 128.17ZM250 141.31V134.12C246.48 135.6 242.63 136.43 238.58 136.43C234.51 136.43 230.64 135.57 227.11 134.06V141.3C230.72 142.51 234.57 143.17 238.58 143.17C242.57 143.16 246.4 142.51 250 141.31ZM227.11 144.53V161.88C224.9 165.61 221.19 167.48 215.97 167.48C209.89 167.48 206.85 164.35 206.85 158.1V110.64H184.1V157.53C184.1 166.26 186.16 173.4 190.28 178.05C194.4 182.71 200.46 185.04 208.48 185.04C216.67 185.04 223.18 181.96 227.99 175.79L228.66 183.69H250V144.55C246.38 145.65 242.55 146.25 238.58 146.25C234.59 146.24 230.74 145.64 227.11 144.53ZM147.27 126.84C140.61 126.84 136.65 131.25 135.39 140.07H158.35V138.31C158.44 134.66 157.52 131.84 155.58 129.84C153.64 127.84 150.87 126.84 147.27 126.84ZM149.84 185.04C138.63 185.04 129.56 181.7 122.63 175.01C115.7 168.33 112.23 159.63 112.23 148.92V147.03C112.23 139.56 113.61 132.97 116.38 127.25C119.15 121.54 123.19 117.11 128.5 113.98C133.81 110.85 140.11 109.04 147.41 109.04C157.67 109.04 165.77 112.47 171.72 118.84C177.66 125.21 180.63 134.09 180.63 145.47V154.31H135.39C136.2 158.41 137.98 161.63 140.72 163.96C143.47 166.3 147.02 167.47 151.39 167.47C158.59 167.47 164.22 164.95 168.27 159.91L178.67 172.2C175.83 176.12 171.82 179.24 166.62 181.55C161.42 183.88 155.83 185.04 149.84 185.04Z" fill="#ED1C24"/>
</svg>
