<svg xmlns="http://www.w3.org/2000/svg" viewBox="0 0 323 37"><path d="M187.334 18.665l-4.185 7.405-8.762.672V15.509l3.336.375 1.817 4.353h1.861V7.815h-1.861l-1.815 4.694-3.336.426V2.198l7.655.822 4.546 7.384 1.233-.2-.169-10.2h-42.71v1.777l3.8 1.261v27.845c0 2.428-1.619 2.83-3.645 2.83a4.51 4.51 0 01-1.522-.209v-.129a3.388 3.388 0 002.324-3.293 3.629 3.629 0 00-3.633-3.633 3.257 3.257 0 00-.537.046 6.441 6.441 0 002.725-5.376c0-4.9-3.972-7.057-8.365-7.475v-.214c3.717-.677 6.759-2.658 6.759-6.334 0-5.2-5.823-7.1-11.91-7.1h-15.122v1.777l3.167 1.261v22.984l-3.167 1.267v1.777h15.543a21.635 21.635 0 008.113-1.322 4.264 4.264 0 00-1.049 2.846c0 3.593 3.432 6.171 8.927 6.171 5.915 0 10.942-2.565 10.942-10.264V3.038l3.376-1.261 3.17 1.261v22.984l-3.17 1.267v1.777l27.028-.034-.131-10.166zM128.155 3.253h1.27c3.165 0 4.562.6 4.562 4.6 0 3.258-1.229 4.4-4.481 4.4h-1.351zm2.024 22.556h-2.024v-10.6h1.9c3.3 0 5.071 1.689 5.071 5.365-.001 4.135-1.438 5.235-4.947 5.235zM.561 1.001L0 10.428l.962.2 3.894-7.7 5.1-.643v24.236l-4.294.8v1.285H18.9v-1.282l-4.292-.8V2.284l5.088.643 3.9 7.7.958-.2-.558-9.426zM45.28 2.284l3.448.8v10.677H35.449V3.087l3.454-.8V1.001H27.021v1.282l3.772.8v23.438l-3.772.8v1.285h11.881v-1.282l-3.454-.8V15.605h13.279v10.916l-3.448.8v1.285h11.877v-1.282l-3.773-.8V3.087l3.773-.8V1.001H45.28zM79.64 26.6l-11.359.6v-12l5.057.284 1.646 3.735h.968V9.428h-.968l-1.646 4.051-5.057.319V2.283l9.35.723 3.974 5.935.845-.2-.96-7.745H59.857v1.282l3.774.8V26.52l-3.774.8v1.285h23.636l.964-7.74-.839-.209zM320.833 16.944l-5.825 9.288-8.238.637V15.632l3.338.38 1.812 4.348h1.866V7.941h-1.862l-1.812 4.691-3.338.417V2.324l7.1.76 5.451 7.94 1.3-.209-.59-10.69h-36.823v1.777l3.889 1.261-5.957 18.51-7.058-18.508 3.043-1.261V.126h-62.643l-.26 3.729v-.008l-.08 1.152-.336-1.564A13.791 13.791 0 00204.185 0c-9.128 0-15.107 5.869-15.107 14.433 0 13.325 11.4 16.8 18.433 15.169a13.467 13.467 0 009.186-7.041l-2.234-1.4a10.2 10.2 0 01-6.3 5.079c-3.622.841-8.774-.292-8.774-11.011 0-9.933 2.519-11.992 6.641-11.992a7.668 7.668 0 017.631 7.785l1.416.156 4.261-8.181 4.594-.76v23.91l-3.883 1.267v1.775h17.318v-1.774l-3.881-1.266V2.238l4.67.76 4.2 8.178 1.349-.152-.561-9.121 4.423 1.261v22.985l-3.72 1.267v1.775h16.979v-1.776l-3.719-1.267V3.165l3.719-1.261 2.661 1.261 11.281 26.448h6.251l10.432-26.448 2.846-1.261 2.924 1.261v22.984l-3.167 1.267v1.775h27.332l.847-12.04z"/><path d="M100.659 0C92.12 0 85.105 6.974 85.105 15.006c0 7.986 6.807 14.752 15.554 14.752 8.621 0 15.508-6.765 15.508-14.752C116.167 6.974 109.151 0 100.659 0zm-.028 23.198a8.321 8.321 0 118.321-8.318 8.32 8.32 0 01-8.321 8.318z"/></svg>