<svg width="224" height="38" viewBox="0 0 224 38" fill="none" xmlns="http://www.w3.org/2000/svg">
<g clip-path="url(#clip0_1_2)">
<path d="M8.46 9.69L4.17 9.84L3 16.38H0.48L0.99 7.71H20.34L20.7 16.38H18.33L17.16 9.84L12.93 9.69V27.9L17.13 28.2V30H4.62V28.2L8.46 27.9V9.69ZM24.1174 8.07L21.8374 7.68V6.06L27.4174 5.4H27.5074L28.2874 5.97L28.3174 12.66L28.1074 15.27C28.7274 14.71 29.5674 14.19 30.6274 13.71C31.7074 13.23 32.8374 12.99 34.0174 12.99C35.2774 12.99 36.2574 13.23 36.9574 13.71C37.6574 14.17 38.1474 14.88 38.4274 15.84C38.7074 16.8 38.8474 18.08 38.8474 19.68V27.93L40.7674 28.2V30H32.8774V28.2L34.6174 27.93V19.68C34.6174 18.64 34.5474 17.83 34.4074 17.25C34.2674 16.67 34.0074 16.24 33.6274 15.96C33.2674 15.68 32.7274 15.54 32.0074 15.54C31.3874 15.54 30.7474 15.69 30.0874 15.99C29.4474 16.27 28.8774 16.61 28.3774 17.01V27.93L30.2074 28.2V30H22.4374V28.2L24.1174 27.96V8.07ZM50.3651 30.33C47.7251 30.33 45.7551 29.56 44.4551 28.02C43.1751 26.46 42.5351 24.34 42.5351 21.66C42.5351 19.86 42.8651 18.3 43.5251 16.98C44.2051 15.66 45.1551 14.65 46.3751 13.95C47.5951 13.25 49.0051 12.9 50.6051 12.9C52.6051 12.9 54.1451 13.43 55.2251 14.49C56.3051 15.53 56.8651 17.02 56.9051 18.96C56.9051 20.28 56.8251 21.26 56.6651 21.9H46.9151C46.9951 23.72 47.4251 25.14 48.2051 26.16C48.9851 27.16 50.0951 27.66 51.5351 27.66C52.3151 27.66 53.1151 27.53 53.9351 27.27C54.7751 27.01 55.4351 26.7 55.9151 26.34L56.6651 27.99C56.1251 28.57 55.2451 29.11 54.0251 29.61C52.8251 30.09 51.6051 30.33 50.3651 30.33ZM52.7051 20.1C52.7451 19.54 52.7651 19.11 52.7651 18.81C52.7651 16.15 51.8751 14.82 50.0951 14.82C49.1151 14.82 48.3551 15.21 47.8151 15.99C47.2751 16.77 46.9751 18.14 46.9151 20.1H52.7051ZM73.9784 30.33C72.8984 30.33 71.9284 30.24 71.0684 30.06C70.2084 29.88 69.2484 29.64 68.1884 29.34C67.4884 29.14 67.0184 29.03 66.7784 29.01L67.0484 23.46H69.4784L70.1384 27.33C70.3984 27.61 70.8584 27.86 71.5184 28.08C72.1984 28.3 72.9684 28.41 73.8284 28.41C75.1684 28.41 76.1684 28.12 76.8284 27.54C77.5084 26.94 77.8484 26.11 77.8484 25.05C77.8484 24.35 77.6484 23.75 77.2484 23.25C76.8484 22.73 76.2984 22.27 75.5984 21.87C74.8984 21.45 73.9384 20.97 72.7184 20.43C71.0584 19.67 69.6784 18.77 68.5784 17.73C67.4984 16.67 66.9584 15.24 66.9584 13.44C66.9584 12.32 67.2484 11.31 67.8284 10.41C68.4084 9.49 69.2684 8.77 70.4084 8.25C71.5684 7.71 72.9784 7.44 74.6384 7.44C75.6184 7.44 76.4784 7.51 77.2184 7.65C77.9784 7.79 78.7984 7.98 79.6784 8.22C80.1984 8.36 80.5884 8.45 80.8484 8.49L80.6684 13.74H78.2684L77.6384 10.05C77.4584 9.87 77.0984 9.7 76.5584 9.54C76.0184 9.36 75.4184 9.27 74.7584 9.27C73.5584 9.27 72.6484 9.55 72.0284 10.11C71.4284 10.65 71.1284 11.38 71.1284 12.3C71.1284 13.04 71.3484 13.68 71.7884 14.22C72.2484 14.76 72.7984 15.22 73.4384 15.6C74.0784 15.96 75.0884 16.48 76.4684 17.16C77.5884 17.7 78.5484 18.23 79.3484 18.75C80.1484 19.27 80.8384 19.95 81.4184 20.79C81.9984 21.61 82.2884 22.58 82.2884 23.7C82.2884 24.8 82.0084 25.85 81.4484 26.85C80.9084 27.85 80.0084 28.68 78.7484 29.34C77.5084 30 75.9184 30.33 73.9784 30.33ZM84.1645 25.32C84.1645 23.5 85.0745 22.13 86.8945 21.21C88.7345 20.29 91.1045 19.82 94.0045 19.8V19.11C94.0045 18.29 93.9145 17.65 93.7345 17.19C93.5745 16.73 93.2645 16.39 92.8045 16.17C92.3645 15.93 91.7145 15.81 90.8545 15.81C89.8745 15.81 88.9945 15.94 88.2145 16.2C87.4345 16.44 86.6245 16.76 85.7845 17.16L84.8545 15.24C85.1545 14.98 85.6545 14.67 86.3545 14.31C87.0745 13.95 87.9245 13.64 88.9045 13.38C89.8845 13.1 90.8945 12.96 91.9345 12.96C93.4745 12.96 94.6745 13.16 95.5345 13.56C96.4145 13.96 97.0445 14.6 97.4245 15.48C97.8045 16.36 97.9945 17.54 97.9945 19.02V28.2H99.6145V29.88C99.2145 29.98 98.6445 30.08 97.9045 30.18C97.1645 30.28 96.5145 30.33 95.9545 30.33C95.2745 30.33 94.8145 30.23 94.5745 30.03C94.3545 29.83 94.2445 29.42 94.2445 28.8V27.99C93.7045 28.59 93.0045 29.13 92.1445 29.61C91.2845 30.09 90.3145 30.33 89.2345 30.33C88.3145 30.33 87.4645 30.14 86.6845 29.76C85.9245 29.36 85.3145 28.79 84.8545 28.05C84.3945 27.29 84.1645 26.38 84.1645 25.32ZM91.1545 27.84C91.5745 27.84 92.0545 27.72 92.5945 27.48C93.1345 27.22 93.6045 26.91 94.0045 26.55V21.63C92.2045 21.63 90.8545 21.94 89.9545 22.56C89.0745 23.16 88.6345 23.94 88.6345 24.9C88.6345 25.86 88.8545 26.59 89.2945 27.09C89.7545 27.59 90.3745 27.84 91.1545 27.84ZM101.157 25.32C101.157 23.5 102.067 22.13 103.887 21.21C105.727 20.29 108.097 19.82 110.997 19.8V19.11C110.997 18.29 110.907 17.65 110.727 17.19C110.567 16.73 110.257 16.39 109.797 16.17C109.357 15.93 108.707 15.81 107.847 15.81C106.867 15.81 105.987 15.94 105.207 16.2C104.427 16.44 103.617 16.76 102.777 17.16L101.847 15.24C102.147 14.98 102.647 14.67 103.347 14.31C104.067 13.95 104.917 13.64 105.897 13.38C106.877 13.1 107.887 12.96 108.927 12.96C110.467 12.96 111.667 13.16 112.527 13.56C113.407 13.96 114.037 14.6 114.417 15.48C114.797 16.36 114.987 17.54 114.987 19.02V28.2H116.607V29.88C116.207 29.98 115.637 30.08 114.897 30.18C114.157 30.28 113.507 30.33 112.947 30.33C112.267 30.33 111.807 30.23 111.567 30.03C111.347 29.83 111.237 29.42 111.237 28.8V27.99C110.697 28.59 109.997 29.13 109.137 29.61C108.277 30.09 107.307 30.33 106.227 30.33C105.307 30.33 104.457 30.14 103.677 29.76C102.917 29.36 102.307 28.79 101.847 28.05C101.387 27.29 101.157 26.38 101.157 25.32ZM108.147 27.84C108.567 27.84 109.047 27.72 109.587 27.48C110.127 27.22 110.597 26.91 110.997 26.55V21.63C109.197 21.63 107.847 21.94 106.947 22.56C106.067 23.16 105.627 23.94 105.627 24.9C105.627 25.86 105.847 26.59 106.287 27.09C106.747 27.59 107.367 27.84 108.147 27.84ZM126.039 30.33C124.959 30.33 123.989 30.24 123.129 30.06C122.269 29.88 121.309 29.64 120.249 29.34C119.549 29.14 119.079 29.03 118.839 29.01L119.109 23.46H121.539L122.199 27.33C122.459 27.61 122.919 27.86 123.579 28.08C124.259 28.3 125.029 28.41 125.889 28.41C127.229 28.41 128.229 28.12 128.889 27.54C129.569 26.94 129.909 26.11 129.909 25.05C129.909 24.35 129.709 23.75 129.309 23.25C128.909 22.73 128.359 22.27 127.659 21.87C126.959 21.45 125.999 20.97 124.779 20.43C123.119 19.67 121.739 18.77 120.639 17.73C119.559 16.67 119.019 15.24 119.019 13.44C119.019 12.32 119.309 11.31 119.889 10.41C120.469 9.49 121.329 8.77 122.469 8.25C123.629 7.71 125.039 7.44 126.699 7.44C127.679 7.44 128.539 7.51 129.279 7.65C130.039 7.79 130.859 7.98 131.739 8.22C132.259 8.36 132.649 8.45 132.909 8.49L132.729 13.74H130.329L129.699 10.05C129.519 9.87 129.159 9.7 128.619 9.54C128.079 9.36 127.479 9.27 126.819 9.27C125.619 9.27 124.709 9.55 124.089 10.11C123.489 10.65 123.189 11.38 123.189 12.3C123.189 13.04 123.409 13.68 123.849 14.22C124.309 14.76 124.859 15.22 125.499 15.6C126.139 15.96 127.149 16.48 128.529 17.16C129.649 17.7 130.609 18.23 131.409 18.75C132.209 19.27 132.899 19.95 133.479 20.79C134.059 21.61 134.349 22.58 134.349 23.7C134.349 24.8 134.069 25.85 133.509 26.85C132.969 27.85 132.069 28.68 130.809 29.34C129.569 30 127.979 30.33 126.039 30.33ZM145.894 9.96L143.524 9.57V7.71H150.334L159.274 21.21L160.954 24.63V9.96L158.374 9.57V7.71H165.814V9.57L163.504 9.96V30H159.874L150.544 15.81L148.444 11.85V27.9L151.474 28.2V30H143.524V28.2L145.894 27.9V9.96ZM175.316 30.33C172.676 30.33 170.706 29.56 169.406 28.02C168.126 26.46 167.486 24.34 167.486 21.66C167.486 19.86 167.816 18.3 168.476 16.98C169.156 15.66 170.106 14.65 171.326 13.95C172.546 13.25 173.956 12.9 175.556 12.9C177.556 12.9 179.096 13.43 180.176 14.49C181.256 15.53 181.816 17.02 181.856 18.96C181.856 20.28 181.776 21.26 181.616 21.9H171.866C171.946 23.72 172.376 25.14 173.156 26.16C173.936 27.16 175.046 27.66 176.486 27.66C177.266 27.66 178.066 27.53 178.886 27.27C179.726 27.01 180.386 26.7 180.866 26.34L181.616 27.99C181.076 28.57 180.196 29.11 178.976 29.61C177.776 30.09 176.556 30.33 175.316 30.33ZM177.656 20.1C177.696 19.54 177.716 19.11 177.716 18.81C177.716 16.15 176.826 14.82 175.046 14.82C174.066 14.82 173.306 15.21 172.766 15.99C172.226 16.77 171.926 18.14 171.866 20.1H177.656ZM182.48 13.35H190.22V15.06L188.12 15.42L190.34 23.4L191.06 26.67L191.72 23.37L194.42 13.35H198.05L201.02 23.37L201.74 26.67L202.46 23.4L204.56 15.45L202.37 15.06V13.35H208.79V15.06L207.26 15.39L202.7 30.24H199.25L196.22 20.52L195.53 16.95L194.99 20.52L192.2 30.24H188.72L183.92 15.39L182.48 15.06V13.35ZM212.776 27.54C212.936 27.78 213.296 28.01 213.856 28.23C214.436 28.43 215.016 28.53 215.596 28.53C216.536 28.53 217.236 28.34 217.696 27.96C218.176 27.56 218.416 27.04 218.416 26.4C218.416 25.74 218.126 25.21 217.546 24.81C216.966 24.39 215.986 23.88 214.606 23.28L213.766 22.92C212.386 22.34 211.356 21.64 210.676 20.82C209.996 20 209.656 18.94 209.656 17.64C209.656 16.74 209.926 15.94 210.466 15.24C211.006 14.52 211.766 13.96 212.746 13.56C213.726 13.16 214.856 12.96 216.136 12.96C217.076 12.96 217.876 13.02 218.536 13.14C219.216 13.26 219.926 13.42 220.666 13.62C221.066 13.76 221.366 13.84 221.566 13.86V17.79H219.196L218.506 15.51C218.386 15.31 218.116 15.13 217.696 14.97C217.276 14.81 216.796 14.73 216.256 14.73C215.436 14.73 214.776 14.91 214.276 15.27C213.796 15.61 213.556 16.09 213.556 16.71C213.556 17.27 213.726 17.74 214.066 18.12C214.406 18.48 214.776 18.76 215.176 18.96C215.576 19.16 216.316 19.49 217.396 19.95C218.476 20.41 219.366 20.85 220.066 21.27C220.786 21.69 221.376 22.24 221.836 22.92C222.316 23.58 222.556 24.39 222.556 25.35C222.556 26.83 221.976 28.03 220.816 28.95C219.656 29.87 217.986 30.33 215.806 30.33C214.786 30.33 213.866 30.24 213.046 30.06C212.246 29.88 211.316 29.64 210.256 29.34L209.596 29.13V25.17H212.086L212.776 27.54Z" fill="#14213D"/>
</g>
<defs>
<clipPath id="clip0_1_2">
<rect width="224" height="38" fill="white"/>
</clipPath>
</defs>
</svg>
